NotoSansMono-SemiBold.ufo
<glyph name="bracketleft" format="2">
  <advance width="600"/>
  <unicode hex="005B"/>
  <outline>
    <contour>
      <point x="230" y="-162" type="line"/>
      <point x="470" y="-162" type="line"/>
      <point x="470" y="-59" type="line"/>
      <point x="354" y="-59" type="line"/>
      <point x="354" y="619" type="line"/>
      <point x="470" y="619" type="line"/>
      <point x="470" y="721" type="line"/>
      <point x="230" y="721" type="line"/>
    </contour>
  </outline>
</glyph>
<glyph name="asciitilde" format="2">
  <advance width="600"/>
  <unicode hex="007E"/>
  <outline>
    <contour>
      <point x="75" y="269" type="line"/>
      <point x="108" y="305"/>
      <point x="147" y="328"/>
      <point x="181" y="328" type="curve" smooth="yes"/>
      <point x="210" y="328"/>
      <point x="241" y="321"/>
      <point x="284" y="301" type="curve" smooth="yes"/>
      <point x="335" y="277"/>
      <point x="369" y="271"/>
      <point x="409" y="271" type="curve" smooth="yes"/>
      <point x="456" y="271"/>
      <point x="494" y="288"/>
      <point x="525" y="323" type="curve"/>
      <point x="525" y="436" type="line"/>
      <point x="494" y="402"/>
      <point x="453" y="377"/>
      <point x="419" y="377" type="curve" smooth="yes"/>
      <point x="390" y="377"/>
      <point x="359" y="385"/>
      <point x="316" y="404" type="curve" smooth="yes"/>
      <point x="265" y="426"/>
      <point x="231" y="435"/>
      <point x="192" y="435" type="curve" smooth="yes"/>
      <point x="144" y="435"/>
      <point x="106" y="417"/>
      <point x="75" y="383" type="curve"/>
    </contour>
  </outline>
</glyph>
<glyph name="Oslash" format="2">
  <advance width="600"/>
  <unicode hex="00D8"/>
  <anchor x="300" y="0" name="bottom"/>
  <anchor x="300" y="714" name="top"/>
  <anchor x="300" y="357" name="center"/>
  <anchor x="297" y="10" name="ogonek"/>
  <anchor x="20" y="714" name="topleft"/>
  <anchor x="600" y="714" name="topright"/>
  <outline>
    <contour>
      <point x="90" y="-43" type="line"/>
      <point x="588" y="701" type="line"/>
      <point x="512" y="751" type="line"/>
      <point x="13" y="9" type="line"/>
    </contour>
    <component base="O"/>
  </outline>
</glyph>
<glyph name="Lslash" format="2">
  <advance width="600"/>
  <unicode hex="0141"/>
  <anchor x="357" y="0" name="bottom"/>
  <anchor x="205" y="714" name="top"/>
  <anchor x="340" y="357" name="center"/>
  <anchor x="494" y="714" name="topright"/>
  <outline>
    <contour>
      <point x="93" y="220" type="line"/>
      <point x="405" y="408" type="line"/>
      <point x="350" y="501" type="line"/>
      <point x="40" y="312" type="line"/>
    </contour>
    <component base="L" xOffset="40"/>
  </outline>
</glyph>
<glyph name="napostrophe" format="2">
  <advance width="600"/>
  <unicode hex="0149"/>
  <anchor x="309" y="0" name="bottom"/>
  <anchor x="309" y="546" name="top"/>
  <outline>
    <contour>
      <point x="65" y="0" type="line"/>
      <point x="210" y="0" type="line"/>
      <point x="210" y="257" type="line" smooth="yes"/>
      <point x="210" y="368"/>
      <point x="242" y="436"/>
      <point x="318" y="436" type="curve" smooth="yes"/>
      <point x="374" y="436"/>
      <point x="405" y="398"/>
      <point x="405" y="319" type="curve" smooth="yes"/>
      <point x="405" y="0" type="line"/>
      <point x="550" y="0" type="line"/>
      <point x="550" y="356" type="line" smooth="yes"/>
      <point x="550" y="485"/>
      <point x="486" y="556"/>
      <point x="367" y="556" type="curve" smooth="yes"/>
      <point x="294" y="556"/>
      <point x="239" y="529"/>
      <point x="207" y="476" type="curve"/>
      <point x="199" y="476" type="line"/>
      <point x="175" y="546" type="line"/>
      <point x="65" y="546" type="line"/>
    </contour>
    <component base="quoteright" xOffset="-324"/>
  </outline>
</glyph>
<glyph name="eng" format="2">
  <advance width="600"/>
  <unicode hex="014B"/>
  <anchor x="304" y="-240" name="bottom"/>
  <anchor x="304" y="546" name="top"/>
  <anchor x="580" y="546" name="topright"/>
  <outline>
    <contour>
      <point x="374" y="-240" type="curve" smooth="yes"/>
      <point x="499" y="-240"/>
      <point x="550" y="-161"/>
      <point x="550" y="-61" type="curve" smooth="yes"/>
      <point x="550" y="111" type="line"/>
      <point x="405" y="111" type="line"/>
      <point x="405" y="-42" type="line" smooth="yes"/>
      <point x="405" y="-109"/>
      <point x="377" y="-125"/>
      <point x="340" y="-125" type="curve" smooth="yes"/>
      <point x="324" y="-125"/>
      <point x="306" y="-122"/>
      <point x="286" y="-116" type="curve"/>
      <point x="286" y="-228" type="line"/>
      <point x="307" y="-235"/>
      <point x="343" y="-240"/>
    </contour>
    <component base="n"/>
  </outline>
</glyph>
<glyph name="tbar" format="2">
  <advance width="600"/>
  <unicode hex="0167"/>
  <anchor x="324" y="0" name="bottom"/>
  <anchor x="269" y="682" name="top"/>
  <anchor x="261" y="273" name="center"/>
  <anchor x="580" y="682" name="topright"/>
  <outline>
    <contour>
      <point x="53" y="247" type="line"/>
      <point x="533" y="247" type="line"/>
      <point x="533" y="341" type="line"/>
      <point x="53" y="341" type="line"/>
    </contour>
    <component base="t"/>
  </outline>
</glyph>
<glyph name="Uogonek" format="2">
  <advance width="600"/>
  <unicode hex="0172"/>
  <anchor x="330" y="-237" name="bottom"/>
  <anchor x="300" y="714" name="top"/>
  <anchor x="540" y="10" name="ogonek"/>
  <anchor x="580" y="714" name="topright"/>
  <outline>
    <contour>
      <point x="334" y="-237" type="curve" smooth="yes"/>
      <point x="361" y="-237"/>
      <point x="385" y="-232"/>
      <point x="402" y="-225" type="curve"/>
      <point x="402" y="-140" type="line"/>
      <point x="391" y="-144"/>
      <point x="374" y="-149"/>
      <point x="359" y="-149" type="curve" smooth="yes"/>
      <point x="331" y="-149"/>
      <point x="316" y="-133"/>
      <point x="316" y="-109" type="curve" smooth="yes"/>
      <point x="316" y="-68"/>
      <point x="358" y="-26"/>
      <point x="438" y="20" type="curve"/>
      <point x="371" y="36" type="line"/>
      <point x="261" y="-4"/>
      <point x="214" y="-67"/>
      <point x="214" y="-132" type="curve" smooth="yes"/>
      <point x="214" y="-194"/>
      <point x="256" y="-237"/>
    </contour>
    <component base="U"/>
  </outline>
</glyph>
<glyph name="uni018C" format="2">
  <advance width="600"/>
  <unicode hex="018C"/>
  <anchor x="300" y="0" name="bottom"/>
  <anchor x="317" y="760" name="top"/>
  <anchor x="300" y="273" name="center"/>
  <anchor x="580" y="760" name="topright"/>
  <outline>
    <contour>
      <point x="99" y="648" type="line"/>
      <point x="466" y="648" type="line"/>
      <point x="466" y="760" type="line"/>
      <point x="99" y="760" type="line"/>
    </contour>
    <component base="d"/>
  </outline>
</glyph>
<glyph name="uni0191" format="2">
  <advance width="600"/>
  <unicode hex="0191"/>
  <anchor x="180" y="0" name="bottom"/>
  <anchor x="405" y="714" name="top"/>
  <anchor x="599" y="714" name="topright"/>
  <outline>
    <contour>
      <point x="170" y="-15" type="curve" smooth="yes"/>
      <point x="285" y="-15"/>
      <point x="355" y="55"/>
      <point x="355" y="165" type="curve" smooth="yes"/>
      <point x="355" y="309" type="line"/>
      <point x="550" y="309" type="line"/>
      <point x="550" y="434" type="line"/>
      <point x="355" y="434" type="line"/>
      <point x="355" y="589" type="line"/>
      <point x="565" y="589" type="line"/>
      <point x="565" y="714" type="line"/>
      <point x="215" y="714" type="line"/>
      <point x="215" y="171" type="line" smooth="yes"/>
      <point x="215" y="126"/>
      <point x="197" y="95"/>
      <point x="165" y="95" type="curve" smooth="yes"/>
      <point x="134" y="95"/>
      <point x="117" y="115"/>
      <point x="117" y="142" type="curve" smooth="yes"/>
      <point x="117" y="153"/>
      <point x="120" y="171"/>
      <point x="128" y="188" type="curve"/>
      <point x="11" y="225" type="line"/>
      <point x="-2" y="202"/>
      <point x="-11" y="173"/>
      <point x="-11" y="139" type="curve" smooth="yes"/>
      <point x="-11" y="47"/>
      <point x="53" y="-15"/>
    </contour>
  </outline>
</glyph>
<glyph name="uni0197" format="2">
  <advance width="600"/>
  <unicode hex="0197"/>
  <anchor x="300" y="0" name="bottom"/>
  <anchor x="300" y="714" name="top"/>
  <anchor x="386" y="10" name="ogonek"/>
  <anchor x="20" y="714" name="topleft"/>
  <anchor x="580" y="714" name="topright"/>
  <outline>
    <contour>
      <point x="105" y="315" type="line"/>
      <point x="495" y="315" type="line"/>
      <point x="495" y="435" type="line"/>
      <point x="105" y="435" type="line"/>
    </contour>
    <component base="I"/>
  </outline>
</glyph>
<glyph name="uni019B" format="2">
  <advance width="600"/>
  <unicode hex="019B"/>
  <anchor x="250" y="0" name="bottom"/>
  <anchor x="256" y="766" name="top"/>
  <outline>
    <contour>
      <point x="134" y="507" type="line"/>
      <point x="452" y="604" type="line"/>
      <point x="427" y="687" type="line"/>
      <point x="109" y="589" type="line"/>
    </contour>
    <component base="lambda"/>
  </outline>
</glyph>
<glyph name="uni019D" format="2">
  <advance width="600"/>
  <unicode hex="019D"/>
  <anchor x="300" y="-200" name="bottom"/>
  <anchor x="300" y="714" name="top"/>
  <anchor x="600" y="714" name="topright"/>
  <outline>
    <contour>
      <point x="10" y="-210" type="curve" smooth="yes"/>
      <point x="111" y="-210"/>
      <point x="174" y="-157"/>
      <point x="174" y="-34" type="curve" smooth="yes"/>
      <point x="174" y="365" type="line"/>
      <point x="45" y="365" type="line"/>
      <point x="45" y="-41" type="line" smooth="yes"/>
      <point x="45" y="-81"/>
      <point x="23" y="-101"/>
      <point x="-8" y="-101" type="curve" smooth="yes"/>
      <point x="-31" y="-101"/>
      <point x="-52" y="-95"/>
      <point x="-63" y="-91" type="curve"/>
      <point x="-63" y="-195" type="line"/>
      <point x="-49" y="-201"/>
      <point x="-23" y="-210"/>
    </contour>
    <component base="N"/>
  </outline>
</glyph>
<glyph name="uni01AB" format="2">
  <advance width="600"/>
  <unicode hex="01AB"/>
  <anchor x="376" y="-240" name="bottom"/>
  <anchor x="300" y="682" name="top"/>
  <anchor x="261" y="273" name="center"/>
  <anchor x="580" y="682" name="topright"/>
  <outline>
    <contour>
      <point x="391" y="-240" type="curve" smooth="yes"/>
      <point x="484" y="-240"/>
      <point x="533" y="-189"/>
      <point x="533" y="-74" type="curve" smooth="yes"/>
      <point x="533" y="76" type="line"/>
      <point x="409" y="30" type="line"/>
      <point x="409" y="-74" type="line" smooth="yes"/>
      <point x="409" y="-118"/>
      <point x="392" y="-132"/>
      <point x="359" y="-132" type="curve" smooth="yes"/>
      <point x="342" y="-132"/>
      <point x="325" y="-128"/>
      <point x="311" y="-123" type="curve"/>
      <point x="311" y="-227" type="line"/>
      <point x="333" y="-235"/>
      <point x="360" y="-240"/>
    </contour>
    <component base="t"/>
  </outline>
</glyph>
<glyph name="uni01BB" format="2">
  <advance width="600"/>
  <unicode hex="01BB"/>
  <anchor x="327" y="0" name="bottom"/>
  <anchor x="310" y="714" name="top"/>
  <outline>
    <contour>
      <point x="65" y="293" type="line"/>
      <point x="547" y="293" type="line"/>
      <point x="547" y="390" type="line"/>
      <point x="65" y="390" type="line"/>
    </contour>
    <component base="two"/>
  </outline>
</glyph>
<glyph name="uni0224" format="2">
  <advance width="600"/>
  <unicode hex="0224"/>
  <anchor x="338" y="-240" name="bottom"/>
  <anchor x="300" y="714" name="top"/>
  <anchor x="580" y="714" name="topright"/>
  <outline>
    <contour>
      <point x="377" y="-240" type="curve" smooth="yes"/>
      <point x="500" y="-240"/>
      <point x="549" y="-159"/>
      <point x="549" y="-59" type="curve" smooth="yes"/>
      <point x="549" y="125" type="line"/>
      <point x="402" y="125" type="line"/>
      <point x="402" y="0" type="line"/>
      <point x="412" y="0" type="line"/>
      <point x="412" y="-37" type="line" smooth="yes"/>
      <point x="412" y="-111"/>
      <point x="382" y="-130"/>
      <point x="345" y="-130" type="curve" smooth="yes"/>
      <point x="323" y="-130"/>
      <point x="307" y="-127"/>
      <point x="287" y="-121" type="curve"/>
      <point x="287" y="-228" type="line"/>
      <point x="309" y="-235"/>
      <point x="346" y="-240"/>
    </contour>
    <component base="Z"/>
  </outline>
</glyph>
<glyph name="uni023F" format="2">
  <advance width="600"/>
  <unicode hex="023F"/>
  <anchor x="320" y="-240" name="bottom"/>
  <anchor x="300" y="546" name="top"/>
  <anchor x="580" y="546" name="topright"/>
  <outline>
    <contour>
      <point x="377" y="-240" type="curve" smooth="yes"/>
      <point x="412" y="-240"/>
      <point x="446" y="-234"/>
      <point x="465" y="-227" type="curve"/>
      <point x="465" y="-111" type="line"/>
      <point x="446" y="-117"/>
      <point x="425" y="-120"/>
      <point x="404" y="-120" type="curve" smooth="yes"/>
      <point x="362" y="-120"/>
      <point x="336" y="-103"/>
      <point x="314" y="-56" type="curve" smooth="yes"/>
      <point x="302" y="-30"/>
      <point x="292" y="-13"/>
      <point x="278" y="-5" type="curve"/>
      <point x="101" y="17" type="line"/>
      <point x="150" y="-5"/>
      <point x="161" y="-23"/>
      <point x="186" y="-88" type="curve" smooth="yes"/>
      <point x="224" y="-187"/>
      <point x="267" y="-240"/>
    </contour>
    <component base="s"/>
  </outline>
</glyph>
<glyph name="uni0247" format="2">
  <advance width="600"/>
  <unicode hex="0247"/>
  <anchor x="300" y="-208" name="bottom"/>
  <anchor x="300" y="760" name="top"/>
  <anchor x="310" y="10" name="ogonek"/>
  <anchor x="580" y="546" name="topright"/>
  <outline>
    <contour>
      <point x="84" y="-208" type="line"/>
      <point x="181" y="-208" type="line"/>
      <point x="526" y="760" type="line"/>
      <point x="430" y="760" type="line"/>
    </contour>
    <component base="e"/>
  </outline>
</glyph>
<glyph name="uni024D" format="2">
  <advance width="600"/>
  <unicode hex="024D"/>
  <anchor x="300" y="0" name="bottom"/>
  <anchor x="300" y="546" name="top"/>
  <anchor x="580" y="546" name="topright"/>
  <outline>
    <contour>
      <point x="80" y="215" type="line"/>
      <point x="445" y="215" type="line"/>
      <point x="445" y="312" type="line"/>
      <point x="80" y="312" type="line"/>
    </contour>
    <component base="r"/>
  </outline>
</glyph>
<glyph name="uni024E" format="2">
  <advance width="600"/>
  <unicode hex="024E"/>
  <anchor x="300" y="0" name="bottom"/>
  <anchor x="300" y="714" name="top"/>
  <anchor x="20" y="714" name="topleft"/>
  <anchor x="580" y="714" name="topright"/>
  <outline>
    <contour>
      <point x="0" y="522" type="line"/>
      <point x="600" y="522" type="line"/>
      <point x="600" y="619" type="line"/>
      <point x="0" y="619" type="line"/>
    </contour>
    <component base="Y"/>
  </outline>
</glyph>
<glyph name="uni025F" format="2">
  <advance width="600"/>
  <unicode hex="025F"/>
  <anchor x="313" y="-239" name="bottom"/>
  <anchor x="331" y="546" name="top"/>
  <anchor x="520" y="546" name="topright"/>
  <outline>
    <contour>
      <point x="213" y="-240" type="curve" smooth="yes"/>
      <point x="353" y="-240"/>
      <point x="406" y="-159"/>
      <point x="406" y="-59" type="curve" smooth="yes"/>
      <point x="406" y="230" type="line"/>
      <point x="484" y="230" type="line"/>
      <point x="484" y="327" type="line"/>
      <point x="406" y="327" type="line"/>
      <point x="406" y="546" type="line"/>
      <point x="257" y="546" type="line"/>
      <point x="257" y="327" type="line"/>
      <point x="178" y="327" type="line"/>
      <point x="178" y="230" type="line"/>
      <point x="257" y="230" type="line"/>
      <point x="257" y="-37" type="line" smooth="yes"/>
      <point x="257" y="-103"/>
      <point x="225" y="-120"/>
      <point x="185" y="-120" type="curve" smooth="yes"/>
      <point x="158" y="-120"/>
      <point x="139" y="-117"/>
      <point x="115" y="-111" type="curve"/>
      <point x="115" y="-228" type="line"/>
      <point x="139" y="-235"/>
      <point x="179" y="-240"/>
    </contour>
  </outline>
</glyph>
<glyph name="uni0262" format="2">
  <advance width="600"/>
  <unicode hex="0262"/>
  <anchor x="330" y="0" name="bottom"/>
  <anchor x="330" y="546" name="top"/>
  <anchor x="550" y="547" name="topright"/>
  <outline>
    <contour>
      <point x="322" y="-10" type="curve" smooth="yes"/>
      <point x="399" y="-10"/>
      <point x="479" y="8"/>
      <point x="532" y="33" type="curve"/>
      <point x="532" y="309" type="line"/>
      <point x="292" y="309" type="line"/>
      <point x="292" y="210" type="line"/>
      <point x="417" y="210" type="line"/>
      <point x="417" y="105" type="line"/>
      <point x="389" y="100"/>
      <point x="364" y="97"/>
      <point x="338" y="97" type="curve" smooth="yes"/>
      <point x="214" y="97"/>
      <point x="167" y="165"/>
      <point x="167" y="269" type="curve" smooth="yes"/>
      <point x="167" y="404"/>
      <point x="247" y="457"/>
      <point x="341" y="457" type="curve" smooth="yes"/>
      <point x="392" y="457"/>
      <point x="436" y="441"/>
      <point x="476" y="420" type="curve"/>
      <point x="520" y="514" type="line"/>
      <point x="454" y="546"/>
      <point x="395" y="556"/>
      <point x="337" y="556" type="curve" smooth="yes"/>
      <point x="139" y="556"/>
      <point x="45" y="440"/>
      <point x="45" y="267" type="curve" smooth="yes"/>
      <point x="45" y="102"/>
      <point x="130" y="-10"/>
    </contour>
  </outline>
</glyph>
<glyph name="uni026A" format="2">
  <advance width="600"/>
  <unicode hex="026A"/>
  <anchor x="300" y="0" name="bottom"/>
  <anchor x="300" y="546" name="top"/>
  <outline>
    <contour>
      <point x="95" y="0" type="line"/>
      <point x="503" y="0" type="line"/>
      <point x="503" y="96" type="line"/>
      <point x="361" y="112" type="line"/>
      <point x="361" y="434" type="line"/>
      <point x="503" y="450" type="line"/>
      <point x="503" y="546" type="line"/>
      <point x="95" y="546" type="line"/>
      <point x="95" y="450" type="line"/>
      <point x="234" y="434" type="line"/>
      <point x="234" y="112" type="line"/>
      <point x="95" y="96" type="line"/>
    </contour>
  </outline>
</glyph>
<glyph name="uni0274" format="2">
  <advance width="600"/>
  <unicode hex="0274"/>
  <anchor x="300" y="0" name="bottom"/>
  <anchor x="300" y="546" name="top"/>
  <outline>
    <contour>
      <point x="68" y="0" type="line"/>
      <point x="193" y="0" type="line"/>
      <point x="193" y="228" type="line" smooth="yes"/>
      <point x="193" y="275"/>
      <point x="189" y="346"/>
      <point x="186" y="382" type="curve"/>
      <point x="385" y="0" type="line"/>
      <point x="532" y="0" type="line"/>
      <point x="532" y="546" type="line"/>
      <point x="410" y="546" type="line"/>
      <point x="410" y="320" type="line" smooth="yes"/>
      <point x="410" y="282"/>
      <point x="412" y="204"/>
      <point x="418" y="163" type="curve"/>
      <point x="214" y="546" type="line"/>
      <point x="68" y="546" type="line"/>
    </contour>
  </outline>
</glyph>
<glyph name="uni0280" format="2">
  <advance width="600"/>
  <unicode hex="0280"/>
  <anchor x="334" y="0" name="bottom"/>
  <anchor x="300" y="546" name="top"/>
  <outline>
    <contour>
      <point x="129" y="0" type="line"/>
      <point x="247" y="0" type="line"/>
      <point x="247" y="196" type="line"/>
      <point x="314" y="196" type="line"/>
      <point x="432" y="0" type="line"/>
      <point x="575" y="0" type="line"/>
      <point x="429" y="223" type="line"/>
      <point x="492" y="255"/>
      <point x="515" y="314"/>
      <point x="515" y="377" type="curve" smooth="yes"/>
      <point x="515" y="482"/>
      <point x="452" y="546"/>
      <point x="308" y="546" type="curve" smooth="yes"/>
      <point x="129" y="546" type="line"/>
    </contour>
    <contour>
      <point x="247" y="289" type="line"/>
      <point x="247" y="453" type="line"/>
      <point x="301" y="453" type="line" smooth="yes"/>
      <point x="366" y="453"/>
      <point x="395" y="427"/>
      <point x="395" y="373" type="curve" smooth="yes"/>
      <point x="395" y="314"/>
      <point x="353" y="289"/>
      <point x="287" y="289" type="curve" smooth="yes"/>
    </contour>
  </outline>
</glyph>
<glyph name="uni0282" format="2">
  <advance width="600"/>
  <unicode hex="0282"/>
  <anchor x="310" y="-291" name="bottom"/>
  <anchor x="300" y="546" name="top"/>
  <anchor x="580" y="546" name="topright"/>
  <outline>
    <contour>
      <point x="221" y="-240" type="curve" smooth="yes"/>
      <point x="252" y="-240"/>
      <point x="281" y="-235"/>
      <point x="302" y="-227" type="curve"/>
      <point x="302" y="-123" type="line"/>
      <point x="285" y="-129"/>
      <point x="271" y="-132"/>
      <point x="253" y="-132" type="curve" smooth="yes"/>
      <point x="225" y="-132"/>
      <point x="201" y="-119"/>
      <point x="201" y="-68" type="curve" smooth="yes"/>
      <point x="201" y="27" type="line"/>
      <point x="80" y="95" type="line"/>
      <point x="80" y="-75" type="line" smooth="yes"/>
      <point x="80" y="-179"/>
      <point x="121" y="-240"/>
    </contour>
    <component base="s"/>
  </outline>
</glyph>
<glyph name="uni028F" format="2">
  <advance width="600"/>
  <unicode hex="028F"/>
  <anchor x="300" y="0" name="bottom"/>
  <anchor x="300" y="546" name="top"/>
  <outline>
    <contour>
      <point x="240" y="0" type="line"/>
      <point x="359" y="0" type="line"/>
      <point x="359" y="204" type="line"/>
      <point x="569" y="546" type="line"/>
      <point x="416" y="546" type="line"/>
      <point x="301" y="339" type="line"/>
      <point x="183" y="546" type="line"/>
      <point x="30" y="546" type="line"/>
      <point x="240" y="204" type="line"/>
    </contour>
  </outline>
</glyph>
<glyph name="uni029F" format="2">
  <advance width="600"/>
  <unicode hex="029F"/>
  <anchor x="333" y="0" name="bottom"/>
  <anchor x="216" y="546" name="top"/>
  <outline>
    <contour>
      <point x="148" y="0" type="line"/>
      <point x="509" y="0" type="line"/>
      <point x="509" y="114" type="line"/>
      <point x="274" y="114" type="line"/>
      <point x="274" y="546" type="line"/>
      <point x="148" y="546" type="line"/>
    </contour>
  </outline>
</glyph>
<glyph name="Epsilontonos" format="2">
  <advance width="600"/>
  <unicode hex="0388"/>
  <anchor x="341" y="0" name="bottom"/>
  <anchor x="332" y="714" name="top"/>
  <anchor x="36" y="714" name="topleft"/>
  <outline>
    <contour>
      <point x="133" y="0" type="line"/>
      <point x="530" y="0" type="line"/>
      <point x="530" y="125" type="line"/>
      <point x="273" y="125" type="line"/>
      <point x="273" y="308" type="line"/>
      <point x="515" y="308" type="line"/>
      <point x="515" y="433" type="line"/>
      <point x="273" y="433" type="line"/>
      <point x="273" y="589" type="line"/>
      <point x="530" y="589" type="line"/>
      <point x="530" y="714" type="line"/>
      <point x="133" y="714" type="line"/>
    </contour>
    <component base="tonos" xOffset="-311"/>
  </outline>
</glyph>
<glyph name="Upsilontonos" format="2">
  <advance width="600"/>
  <unicode hex="038E"/>
  <anchor x="351" y="0" name="bottom"/>
  <anchor x="351" y="714" name="top"/>
  <outline>
    <contour>
      <point x="278" y="0" type="line"/>
      <point x="423" y="0" type="line"/>
      <point x="423" y="277" type="line"/>
      <point x="590" y="714" type="line"/>
      <point x="438" y="714" type="line"/>
      <point x="351" y="411" type="line"/>
      <point x="263" y="714" type="line"/>
      <point x="110" y="714" type="line"/>
      <point x="278" y="277" type="line"/>
    </contour>
    <component base="tonos" xOffset="-308"/>
  </outline>
</glyph>
<glyph name="eta" format="2">
  <advance width="600"/>
  <unicode hex="03B7"/>
  <anchor x="301" y="-240" name="bottom"/>
  <anchor x="300" y="546" name="top"/>
  <anchor x="580" y="546" name="topright"/>
  <outline>
    <contour>
      <point x="405" y="-240" type="line"/>
      <point x="550" y="-240" type="line"/>
      <point x="550" y="224" type="line"/>
      <point x="405" y="224" type="line"/>
    </contour>
    <component base="n"/>
  </outline>
</glyph>
<glyph name="afii10043" format="2">
  <advance width="600"/>
  <unicode hex="0429"/>
  <anchor x="300" y="-208" name="bottom"/>
  <anchor x="300" y="714" name="top"/>
  <outline>
    <contour>
      <point x="475" y="-208" type="line"/>
      <point x="600" y="-208" type="line"/>
      <point x="600" y="112" type="line"/>
      <point x="445" y="112" type="line"/>
      <point x="445" y="0" type="line"/>
      <point x="475" y="0" type="line"/>
    </contour>
    <component base="afii10042"/>
  </outline>
</glyph>
<glyph name="afii10044" format="2">
  <advance width="600"/>
  <unicode hex="042A"/>
  <anchor x="300" y="0" name="bottom"/>
  <anchor x="300" y="714" name="top"/>
  <outline>
    <contour>
      <point x="0" y="593" type="line"/>
      <point x="245" y="593" type="line"/>
      <point x="245" y="714" type="line"/>
      <point x="0" y="714" type="line"/>
    </contour>
    <component base="afii10046" xOffset="20"/>
  </outline>
</glyph>
<glyph name="afii10081" format="2">
  <advance width="600"/>
  <unicode hex="043F"/>
  <anchor x="303" y="0" name="bottom"/>
  <anchor x="580" y="0" name="bottomright"/>
  <anchor x="303" y="546" name="top"/>
  <outline>
    <contour>
      <point x="55" y="0" type="line"/>
      <point x="198" y="0" type="line"/>
      <point x="198" y="438" type="line"/>
      <point x="402" y="438" type="line"/>
      <point x="402" y="0" type="line"/>
      <point x="545" y="0" type="line"/>
      <point x="545" y="546" type="line"/>
      <point x="55" y="546" type="line"/>
    </contour>
  </outline>
</glyph>
<glyph name="afii10099" format="2">
  <advance width="600"/>
  <unicode hex="0452"/>
  <anchor x="300" y="-240" name="bottom"/>
  <anchor x="300" y="760" name="top"/>
  <anchor x="300" y="273" name="center"/>
  <outline>
    <contour>
      <point x="374" y="-240" type="curve" smooth="yes"/>
      <point x="499" y="-240"/>
      <point x="550" y="-161"/>
      <point x="550" y="-61" type="curve" smooth="yes"/>
      <point x="550" y="162" type="line"/>
      <point x="405" y="162" type="line" smooth="yes"/>
      <point x="405" y="-42" type="line" smooth="yes"/>
      <point x="405" y="-107"/>
      <point x="378" y="-125"/>
      <point x="344" y="-125" type="curve" smooth="yes"/>
      <point x="322" y="-125"/>
      <point x="306" y="-121"/>
      <point x="287" y="-115" type="curve"/>
      <point x="287" y="-228" type="line"/>
      <point x="308" y="-235"/>
      <point x="344" y="-240"/>
    </contour>
    <component base="afii10108"/>
  </outline>
</glyph>
<glyph name="uni0488" format="2">
  <unicode hex="0488"/>
  <outline>
    <contour>
      <point x="-97" y="579" type="curve"/>
      <point x="-63" y="579" type="line"/>
      <point x="-60" y="614"/>
      <point x="-41" y="618"/>
      <point x="-4" y="618" type="curve" smooth="yes"/>
      <point x="26" y="618"/>
      <point x="51" y="612"/>
      <point x="55" y="579" type="curve"/>
      <point x="90" y="579" type="line"/>
      <point x="87" y="630"/>
      <point x="54" y="665"/>
      <point x="-4" y="665" type="curve" smooth="yes"/>
      <point x="-65" y="665"/>
      <point x="-94" y="632"/>
    </contour>
    <contour>
      <point x="61" y="422" type="curve"/>
      <point x="95" y="422" type="line"/>
      <point x="99" y="458"/>
      <point x="118" y="462"/>
      <point x="154" y="462" type="curve" smooth="yes"/>
      <point x="184" y="462"/>
      <point x="210" y="456"/>
      <point x="213" y="422" type="curve"/>
      <point x="249" y="422" type="line"/>
      <point x="245" y="473"/>
      <point x="212" y="509"/>
      <point x="154" y="509" type="curve" smooth="yes"/>
      <point x="93" y="509"/>
      <point x="64" y="475"/>
    </contour>
    <contour>
      <point x="111" y="236" type="curve"/>
      <point x="145" y="236" type="line"/>
      <point x="148" y="272"/>
      <point x="167" y="275"/>
      <point x="204" y="275" type="curve" smooth="yes"/>
      <point x="234" y="275"/>
      <point x="259" y="270"/>
      <point x="263" y="236" type="curve"/>
      <point x="298" y="236" type="line"/>
      <point x="295" y="287"/>
      <point x="262" y="322"/>
      <point x="204" y="322" type="curve" smooth="yes"/>
      <point x="143" y="322"/>
      <point x="114" y="289"/>
    </contour>
    <contour>
      <point x="61" y="44" type="curve"/>
      <point x="95" y="44" type="line"/>
      <point x="99" y="80"/>
      <point x="118" y="83"/>
      <point x="154" y="83" type="curve" smooth="yes"/>
      <point x="184" y="83"/>
      <point x="210" y="78"/>
      <point x="213" y="44" type="curve"/>
      <point x="249" y="44" type="line"/>
      <point x="245" y="95"/>
      <point x="212" y="131"/>
      <point x="154" y="131" type="curve" smooth="yes"/>
      <point x="93" y="131"/>
      <point x="64" y="97"/>
    </contour>
    <contour>
      <point x="-97" y="-109" type="curve"/>
      <point x="-63" y="-109" type="line"/>
      <point x="-60" y="-74"/>
      <point x="-41" y="-70"/>
      <point x="-4" y="-70" type="curve" smooth="yes"/>
      <point x="26" y="-70"/>
      <point x="51" y="-76"/>
      <point x="55" y="-109" type="curve"/>
      <point x="90" y="-109" type="line"/>
      <point x="87" y="-58"/>
      <point x="54" y="-23"/>
      <point x="-4" y="-23" type="curve" smooth="yes"/>
      <point x="-65" y="-23"/>
      <point x="-94" y="-57"/>
    </contour>
    <contour>
      <point x="-253" y="44" type="curve"/>
      <point x="-220" y="44" type="line"/>
      <point x="-216" y="80"/>
      <point x="-197" y="83"/>
      <point x="-161" y="83" type="curve" smooth="yes"/>
      <point x="-131" y="83"/>
      <point x="-105" y="78"/>
      <point x="-102" y="44" type="curve"/>
      <point x="-66" y="44" type="line"/>
      <point x="-70" y="95"/>
      <point x="-103" y="131"/>
      <point x="-161" y="131" type="curve" smooth="yes"/>
      <point x="-222" y="131"/>
      <point x="-251" y="97"/>
    </contour>
    <contour>
      <point x="-298" y="236" type="curve"/>
      <point x="-264" y="236" type="line"/>
      <point x="-260" y="272"/>
      <point x="-241" y="275"/>
      <point x="-205" y="275" type="curve" smooth="yes"/>
      <point x="-175" y="275"/>
      <point x="-149" y="270"/>
      <point x="-146" y="236" type="curve"/>
      <point x="-110" y="236" type="line"/>
      <point x="-114" y="287"/>
      <point x="-147" y="322"/>
      <point x="-205" y="322" type="curve" smooth="yes"/>
      <point x="-266" y="322"/>
      <point x="-295" y="289"/>
    </contour>
    <contour>
      <point x="-253" y="422" type="curve"/>
      <point x="-220" y="422" type="line"/>
      <point x="-216" y="458"/>
      <point x="-197" y="462"/>
      <point x="-161" y="462" type="curve" smooth="yes"/>
      <point x="-131" y="462"/>
      <point x="-105" y="456"/>
      <point x="-102" y="422" type="curve"/>
      <point x="-66" y="422" type="line"/>
      <point x="-70" y="473"/>
      <point x="-103" y="509"/>
      <point x="-161" y="509" type="curve" smooth="yes"/>
      <point x="-222" y="509"/>
      <point x="-251" y="475"/>
    </contour>
  </outline>
</glyph>
<glyph name="uni048B" format="2">
  <advance width="600"/>
  <unicode hex="048B"/>
  <anchor x="300" y="-197" name="bottom"/>
  <anchor x="300" y="769" name="top"/>
  <anchor x="580" y="0" name="bottomright"/>
  <outline>
    <contour>
      <point x="405" y="-196" type="line"/>
      <point x="533" y="-196" type="line"/>
      <point x="600" y="103" type="line"/>
      <point x="468" y="103" type="line"/>
      <point x="460" y="0" type="line"/>
      <point x="472" y="0" type="line"/>
    </contour>
    <component base="afii10074"/>
    <component base="breve"/>
  </outline>
</glyph>
<glyph name="uni048E" format="2">
  <advance width="600"/>
  <unicode hex="048E"/>
  <anchor x="300" y="0" name="bottom"/>
  <anchor x="300" y="714" name="top"/>
  <anchor x="600" y="714" name="topright"/>
  <outline>
    <contour>
      <point x="460" y="184" type="line"/>
      <point x="534" y="239" type="line"/>
      <point x="361" y="486" type="line"/>
      <point x="286" y="432" type="line"/>
    </contour>
    <component base="P"/>
  </outline>
</glyph>
<glyph name="uni048F" format="2">
  <advance width="600"/>
  <unicode hex="048F"/>
  <anchor x="300" y="-240" name="bottom"/>
  <anchor x="300" y="546" name="top"/>
  <anchor x="580" y="546" name="topright"/>
  <outline>
    <contour>
      <point x="456" y="-80" type="line"/>
      <point x="533" y="-22" type="line"/>
      <point x="343" y="239" type="line"/>
      <point x="261" y="179" type="line"/>
    </contour>
    <component base="p"/>
  </outline>
</glyph>
<glyph name="uni0496" format="2">
  <advance width="600"/>
  <unicode hex="0496"/>
  <anchor x="300" y="-211" name="bottom"/>
  <anchor x="300" y="714" name="top"/>
  <anchor x="580" y="0" name="bottomright"/>
  <outline>
    <contour>
      <point x="477" y="-208" type="line"/>
      <point x="599" y="-208" type="line"/>
      <point x="599" y="130" type="line"/>
      <point x="468" y="130" type="line"/>
      <point x="477" y="0" type="line"/>
    </contour>
    <component base="afii10024"/>
  </outline>
</glyph>
<glyph name="uni049A" format="2">
  <advance width="600"/>
  <unicode hex="049A"/>
  <anchor x="300" y="-207" name="bottom"/>
  <anchor x="300" y="714" name="top"/>
  <anchor x="580" y="0" name="bottomright"/>
  <outline>
    <contour>
      <point x="442" y="-208" type="line"/>
      <point x="583" y="-208" type="line"/>
      <point x="583" y="130" type="line"/>
      <point x="423" y="130" type="line"/>
      <point x="442" y="0" type="line"/>
    </contour>
    <component base="afii10028"/>
  </outline>
</glyph>
<glyph name="uni049C" format="2">
  <advance width="600"/>
  <unicode hex="049C"/>
  <anchor x="300" y="0" name="bottom"/>
  <anchor x="300" y="714" name="top"/>
  <anchor x="580" y="0" name="bottomright"/>
  <outline>
    <contour>
      <point x="252" y="63" type="line"/>
      <point x="310" y="63" type="line"/>
      <point x="310" y="655" type="line"/>
      <point x="252" y="655" type="line"/>
    </contour>
    <component base="afii10028"/>
  </outline>
</glyph>
<glyph name="uni049E" format="2">
  <advance width="600"/>
  <unicode hex="049E"/>
  <anchor x="300" y="0" name="bottom"/>
  <anchor x="300" y="714" name="top"/>
  <anchor x="560" y="0" name="bottomright"/>
  <outline>
    <contour>
      <point x="-8" y="542" type="line"/>
      <point x="236" y="542" type="line"/>
      <point x="236" y="658" type="line"/>
      <point x="-8" y="658" type="line"/>
    </contour>
    <component base="afii10028" xOffset="-20"/>
  </outline>
</glyph>
<glyph name="uni04AD" format="2">
  <advance width="600"/>
  <unicode hex="04AD"/>
  <anchor x="300" y="-196" name="bottom"/>
  <anchor x="300" y="546" name="top"/>
  <anchor x="580" y="0" name="bottomright"/>
  <outline>
    <contour>
      <point x="342" y="-196" type="line"/>
      <point x="476" y="-196" type="line"/>
      <point x="476" y="109" type="line"/>
      <point x="342" y="109" type="line"/>
      <point x="283" y="0" type="line"/>
      <point x="342" y="0" type="line"/>
    </contour>
    <component base="afii10084"/>
  </outline>
</glyph>
<glyph name="uni04B1" format="2">
  <advance width="600"/>
  <unicode hex="04B1"/>
  <anchor x="300" y="-240" name="bottom"/>
  <anchor x="300" y="546" name="top"/>
  <outline>
    <contour>
      <point x="82" y="-112" type="line"/>
      <point x="516" y="-112" type="line"/>
      <point x="516" y="0" type="line"/>
      <point x="82" y="0" type="line"/>
    </contour>
    <component base="uni04AF"/>
  </outline>
</glyph>
<glyph name="uni04B2" format="2">
  <advance width="600"/>
  <unicode hex="04B2"/>
  <anchor x="300" y="-208" name="bottom"/>
  <anchor x="300" y="714" name="top"/>
  <anchor x="580" y="714" name="topright"/>
  <outline>
    <contour>
      <point x="447" y="-208" type="line"/>
      <point x="593" y="-208" type="line"/>
      <point x="593" y="130" type="line"/>
      <point x="450" y="130" type="line"/>
      <point x="434" y="0" type="line"/>
      <point x="447" y="0" type="line"/>
    </contour>
    <component base="X"/>
  </outline>
</glyph>
<glyph name="uni04B6" format="2">
  <advance width="600"/>
  <unicode hex="04B6"/>
  <anchor x="300" y="-208" name="bottom"/>
  <anchor x="300" y="714" name="top"/>
  <anchor x="580" y="0" name="bottomright"/>
  <outline>
    <contour>
      <point x="458" y="-208" type="line"/>
      <point x="594" y="-208" type="line"/>
      <point x="594" y="130" type="line"/>
      <point x="458" y="130" type="line"/>
      <point x="437" y="0" type="line"/>
      <point x="458" y="0" type="line"/>
    </contour>
    <component base="afii10041"/>
  </outline>
</glyph>
<glyph name="uni04B7" format="2">
  <advance width="600"/>
  <unicode hex="04B7"/>
  <anchor x="300" y="-193" name="bottom"/>
  <anchor x="300" y="546" name="top"/>
  <anchor x="580" y="0" name="bottomright"/>
  <outline>
    <contour>
      <point x="465" y="-196" type="line"/>
      <point x="594" y="-196" type="line"/>
      <point x="594" y="109" type="line"/>
      <point x="435" y="109" type="line"/>
      <point x="426" y="0" type="line"/>
      <point x="465" y="0" type="line"/>
    </contour>
    <component base="afii10089"/>
  </outline>
</glyph>
<glyph name="uni04BE" format="2">
  <advance width="600"/>
  <unicode hex="04BE"/>
  <anchor x="386" y="-240" name="bottom"/>
  <anchor x="370" y="714" name="top"/>
  <outline>
    <contour>
      <point x="315" y="-208" type="line"/>
      <point x="439" y="-208" type="line"/>
      <point x="439" y="20" type="line"/>
      <point x="315" y="20" type="line"/>
    </contour>
    <component base="uni04BC"/>
  </outline>
</glyph>
<glyph name="uni04CC" format="2">
  <advance width="600"/>
  <unicode hex="04CC"/>
  <anchor x="300" y="-240" name="bottom"/>
  <anchor x="300" y="546" name="top"/>
  <anchor x="580" y="0" name="bottomright"/>
  <outline>
    <contour>
      <point x="352" y="-196" type="line"/>
      <point x="481" y="-196" type="line"/>
      <point x="481" y="0" type="line"/>
      <point x="520" y="0" type="line"/>
      <point x="511" y="109" type="line"/>
      <point x="352" y="109" type="line"/>
    </contour>
    <component base="afii10089"/>
  </outline>
</glyph>
<glyph name="uni04CD" format="2">
  <advance width="600"/>
  <unicode hex="04CD"/>
  <anchor x="300" y="-208" name="bottom"/>
  <anchor x="300" y="714" name="top"/>
  <anchor x="600" y="714" name="topright"/>
  <outline>
    <contour>
      <point x="373" y="-208" type="line"/>
      <point x="531" y="-208" type="line"/>
      <point x="600" y="116" type="line"/>
      <point x="454" y="116" type="line"/>
      <point x="433" y="0" type="line"/>
      <point x="454" y="0" type="line"/>
    </contour>
    <component base="M"/>
  </outline>
</glyph>
<glyph name="uni04FF" format="2">
  <advance width="600"/>
  <unicode hex="04FF"/>
  <anchor x="300" y="0" name="bottom"/>
  <anchor x="300" y="546" name="top"/>
  <anchor x="580" y="546" name="topright"/>
  <outline>
    <contour>
      <point x="62" y="222" type="line"/>
      <point x="540" y="222" type="line"/>
      <point x="540" y="334" type="line"/>
      <point x="62" y="334" type="line"/>
    </contour>
    <component base="x"/>
  </outline>
</glyph>
<glyph name="uni051E" format="2">
  <advance width="600"/>
  <unicode hex="051E"/>
  <anchor x="300" y="0" name="bottom"/>
  <anchor x="300" y="714" name="top"/>
  <anchor x="580" y="0" name="bottomright"/>
  <outline>
    <contour>
      <point x="510" y="400" type="line"/>
      <point x="574" y="475" type="line"/>
      <point x="274" y="714" type="line"/>
      <point x="211" y="639" type="line"/>
    </contour>
    <component base="afii10028"/>
  </outline>
</glyph>
<glyph name="uni0527" format="2">
  <advance width="600"/>
  <unicode hex="0527"/>
  <anchor x="300" y="-195" name="bottom"/>
  <anchor x="129" y="760" name="top"/>
  <anchor x="300" y="273" name="center"/>
  <anchor x="580" y="760" name="topright"/>
  <outline>
    <contour>
      <point x="471" y="-195" type="line"/>
      <point x="600" y="-195" type="line"/>
      <point x="600" y="105" type="line"/>
      <point x="425" y="105" type="line"/>
      <point x="425" y="0" type="line"/>
      <point x="471" y="0" type="line"/>
    </contour>
    <component base="h"/>
  </outline>
</glyph>
<glyph name="uni0529" format="2">
  <advance width="600"/>
  <unicode hex="0529"/>
  <anchor x="303" y="-240" name="bottom"/>
  <anchor x="300" y="546" name="top"/>
  <anchor x="580" y="0" name="bottomright"/>
  <outline>
    <contour>
      <point x="24" y="-240" type="curve" smooth="yes"/>
      <point x="148" y="-240"/>
      <point x="198" y="-161"/>
      <point x="198" y="-61" type="curve" smooth="yes"/>
      <point x="198" y="162" type="line"/>
      <point x="55" y="162" type="line" smooth="yes"/>
      <point x="55" y="-42" type="line" smooth="yes"/>
      <point x="55" y="-107"/>
      <point x="28" y="-125"/>
      <point x="-6" y="-125" type="curve" smooth="yes"/>
      <point x="-28" y="-125"/>
      <point x="-44" y="-121"/>
      <point x="-63" y="-115" type="curve"/>
      <point x="-63" y="-228" type="line"/>
      <point x="-42" y="-235"/>
      <point x="-6" y="-240"/>
    </contour>
    <component base="afii10079"/>
  </outline>
</glyph>
<glyph name="uni052A" format="2">
  <advance width="1200"/>
  <unicode hex="052A"/>
  <anchor x="600" y="-206" name="bottom"/>
  <anchor x="600" y="714" name="top"/>
  <anchor x="1216" y="0" name="bottomright"/>
  <outline>
    <contour>
      <point x="432" y="312" type="line"/>
      <point x="774" y="312" type="line"/>
      <point x="774" y="426" type="line"/>
      <point x="432" y="426" type="line"/>
    </contour>
    <component base="afii10021"/>
    <component base="afii10028" xOffset="636"/>
  </outline>
</glyph>
<glyph name="uni052E" format="2">
  <advance width="600"/>
  <unicode hex="052E"/>
  <anchor x="318" y="-209" name="bottom"/>
  <anchor x="359" y="714" name="top"/>
  <outline>
    <contour>
      <point x="472" y="-209" type="line"/>
      <point x="608" y="-209" type="line"/>
      <point x="608" y="125" type="line"/>
      <point x="461" y="125" type="line"/>
      <point x="436" y="0" type="line"/>
      <point x="472" y="0" type="line"/>
    </contour>
    <component base="afii10029"/>
  </outline>
</glyph>
<glyph name="uni1ABA" format="2">
  <unicode hex="1ABA"/>
  <anchor x="0" y="0" name="_bottom"/>
  <anchor x="0" y="-241" name="bottom"/>
  <outline>
    <contour>
      <point x="-21" y="-222" type="line"/>
      <point x="103" y="40" type="line"/>
      <point x="25" y="40" type="line"/>
      <point x="-87" y="-196" type="line"/>
    </contour>
    <contour>
      <point x="-36" y="-241" type="curve" smooth="yes"/>
      <point x="1" y="-241"/>
      <point x="33" y="-220"/>
      <point x="33" y="-176" type="curve" smooth="yes"/>
      <point x="33" y="-130"/>
      <point x="1" y="-110"/>
      <point x="-36" y="-110" type="curve" smooth="yes"/>
      <point x="-74" y="-110"/>
      <point x="-104" y="-130"/>
      <point x="-104" y="-176" type="curve" smooth="yes"/>
      <point x="-104" y="-220"/>
      <point x="-74" y="-241"/>
    </contour>
  </outline>
</glyph>
<glyph name="uni1D00" format="2">
  <advance width="600"/>
  <unicode hex="1D00"/>
  <anchor x="300" y="0" name="bottom"/>
  <anchor x="300" y="546" name="top"/>
  <outline>
    <contour>
      <point x="30" y="0" type="line"/>
      <point x="157" y="0" type="line"/>
      <point x="198" y="131" type="line"/>
      <point x="401" y="131" type="line"/>
      <point x="442" y="0" type="line"/>
      <point x="570" y="0" type="line"/>
      <point x="372" y="546" type="line"/>
      <point x="227" y="546" type="line"/>
    </contour>
    <contour>
      <point x="228" y="226" type="line"/>
      <point x="268" y="354" type="line" smooth="yes"/>
      <point x="273" y="370"/>
      <point x="292" y="432"/>
      <point x="300" y="463" type="curve"/>
      <point x="308" y="432"/>
      <point x="325" y="378"/>
      <point x="333" y="354" type="curve" smooth="yes"/>
      <point x="373" y="226" type="line"/>
    </contour>
  </outline>
</glyph>
<glyph name="uni1D03" format="2">
  <advance width="600"/>
  <unicode hex="1D03"/>
  <anchor x="300" y="0" name="bottom"/>
  <anchor x="300" y="546" name="top"/>
  <outline>
    <contour>
      <point x="37" y="245" type="line"/>
      <point x="563" y="245" type="line"/>
      <point x="563" y="326" type="line"/>
      <point x="37" y="326" type="line"/>
    </contour>
    <component base="afii10067"/>
  </outline>
</glyph>
<glyph name="uni1D04" format="2">
  <advance width="600"/>
  <unicode hex="1D04"/>
  <anchor x="350" y="0" name="bottom"/>
  <anchor x="360" y="546" name="top"/>
  <outline>
    <contour>
      <point x="350" y="-8" type="curve" smooth="yes"/>
      <point x="410" y="-8"/>
      <point x="454" y="1"/>
      <point x="504" y="20" type="curve"/>
      <point x="504" y="126" type="line"/>
      <point x="450" y="108"/>
      <point x="407" y="97"/>
      <point x="361" y="97" type="curve" smooth="yes"/>
      <point x="271" y="97"/>
      <point x="231" y="160"/>
      <point x="231" y="273" type="curve" smooth="yes"/>
      <point x="231" y="383"/>
      <point x="277" y="451"/>
      <point x="361" y="451" type="curve" smooth="yes"/>
      <point x="402" y="451"/>
      <point x="445" y="435"/>
      <point x="486" y="416" type="curve"/>
      <point x="525" y="518" type="line"/>
      <point x="474" y="541"/>
      <point x="417" y="556"/>
      <point x="361" y="556" type="curve" smooth="yes"/>
      <point x="192" y="556"/>
      <point x="99" y="440"/>
      <point x="99" y="273" type="curve" smooth="yes"/>
      <point x="99" y="105"/>
      <point x="178" y="-8"/>
    </contour>
  </outline>
</glyph>
<glyph name="uni1D05" format="2">
  <advance width="600"/>
  <unicode hex="1D05"/>
  <anchor x="300" y="0" name="bottom"/>
  <anchor x="300" y="546" name="top"/>
  <outline>
    <contour>
      <point x="86" y="0" type="line"/>
      <point x="244" y="0" type="line" smooth="yes"/>
      <point x="437" y="0"/>
      <point x="549" y="94"/>
      <point x="549" y="278" type="curve" smooth="yes"/>
      <point x="549" y="453"/>
      <point x="437" y="546"/>
      <point x="262" y="546" type="curve" smooth="yes"/>
      <point x="86" y="546" type="line"/>
    </contour>
    <contour>
      <point x="204" y="94" type="line"/>
      <point x="204" y="453" type="line"/>
      <point x="268" y="453" type="line" smooth="yes"/>
      <point x="371" y="453"/>
      <point x="427" y="397"/>
      <point x="427" y="275" type="curve" smooth="yes"/>
      <point x="427" y="155"/>
      <point x="371" y="94"/>
      <point x="255" y="94" type="curve" smooth="yes"/>
    </contour>
  </outline>
</glyph>
<glyph name="uni1D06" format="2">
  <advance width="600"/>
  <unicode hex="1D06"/>
  <anchor x="300" y="0" name="bottom"/>
  <anchor x="300" y="546" name="top"/>
  <outline>
    <contour>
      <point x="20" y="225" type="line"/>
      <point x="310" y="225" type="line"/>
      <point x="310" y="318" type="line"/>
      <point x="20" y="318" type="line"/>
    </contour>
    <component base="uni1D05" xOffset="20"/>
  </outline>
</glyph>
<glyph name="uni1D07" format="2">
  <advance width="600"/>
  <unicode hex="1D07"/>
  <anchor x="306" y="0" name="bottom"/>
  <anchor x="306" y="546" name="top"/>
  <outline>
    <contour>
      <point x="139" y="0" type="line"/>
      <point x="461" y="0" type="line"/>
      <point x="461" y="99" type="line"/>
      <point x="257" y="99" type="line"/>
      <point x="257" y="233" type="line"/>
      <point x="447" y="233" type="line"/>
      <point x="447" y="331" type="line"/>
      <point x="257" y="331" type="line"/>
      <point x="257" y="448" type="line"/>
      <point x="461" y="448" type="line"/>
      <point x="461" y="546" type="line"/>
      <point x="139" y="546" type="line"/>
    </contour>
  </outline>
</glyph>
<glyph name="uni1D0B" format="2">
  <advance width="600"/>
  <unicode hex="1D0B"/>
  <anchor x="300" y="0" name="bottom"/>
  <anchor x="300" y="546" name="top"/>
  <outline>
    <contour>
      <point x="105" y="0" type="line"/>
      <point x="223" y="0" type="line"/>
      <point x="223" y="202" type="line"/>
      <point x="274" y="236" type="line"/>
      <point x="420" y="0" type="line"/>
      <point x="554" y="0" type="line"/>
      <point x="358" y="309" type="line"/>
      <point x="553" y="546" type="line"/>
      <point x="421" y="546" type="line"/>
      <point x="270" y="363" type="line" smooth="yes"/>
      <point x="253" y="343"/>
      <point x="239" y="322"/>
      <point x="223" y="301" type="curve"/>
      <point x="223" y="546" type="line"/>
      <point x="105" y="546" type="line"/>
    </contour>
  </outline>
</glyph>
<glyph name="uni1D0D" format="2">
  <advance width="600"/>
  <unicode hex="1D0D"/>
  <anchor x="300" y="0" name="bottom"/>
  <anchor x="300" y="546" name="top"/>
  <outline>
    <contour>
      <point x="45" y="0" type="line"/>
      <point x="170" y="0" type="line"/>
      <point x="170" y="119" type="line" smooth="yes"/>
      <point x="170" y="225"/>
      <point x="149" y="407"/>
      <point x="145" y="446" type="curve"/>
      <point x="151" y="446" type="line"/>
      <point x="230" y="128" type="line"/>
      <point x="371" y="128" type="line"/>
      <point x="444" y="445" type="line"/>
      <point x="450" y="445" type="line"/>
      <point x="448" y="411"/>
      <point x="429" y="223"/>
      <point x="429" y="125" type="curve" smooth="yes"/>
      <point x="429" y="0" type="line"/>
      <point x="554" y="0" type="line"/>
      <point x="554" y="546" type="line"/>
      <point x="373" y="546" type="line"/>
      <point x="301" y="236" type="line"/>
      <point x="297" y="236" type="line"/>
      <point x="236" y="546" type="line"/>
      <point x="45" y="546" type="line"/>
    </contour>
  </outline>
</glyph>
<glyph name="uni1D18" format="2">
  <advance width="600"/>
  <unicode hex="1D18"/>
  <anchor x="300" y="0" name="bottom"/>
  <anchor x="300" y="546" name="top"/>
  <outline>
    <contour>
      <point x="129" y="0" type="line"/>
      <point x="247" y="0" type="line"/>
      <point x="247" y="196" type="line"/>
      <point x="298" y="196" type="line" smooth="yes"/>
      <point x="461" y="196"/>
      <point x="515" y="281"/>
      <point x="515" y="377" type="curve" smooth="yes"/>
      <point x="515" y="482"/>
      <point x="452" y="546"/>
      <point x="308" y="546" type="curve" smooth="yes"/>
      <point x="129" y="546" type="line"/>
    </contour>
    <contour>
      <point x="247" y="289" type="line"/>
      <point x="247" y="453" type="line"/>
      <point x="301" y="453" type="line" smooth="yes"/>
      <point x="366" y="453"/>
      <point x="395" y="427"/>
      <point x="395" y="373" type="curve" smooth="yes"/>
      <point x="395" y="314"/>
      <point x="353" y="289"/>
      <point x="287" y="289" type="curve" smooth="yes"/>
    </contour>
  </outline>
</glyph>
<glyph name="uni1D1C" format="2">
  <advance width="600"/>
  <unicode hex="1D1C"/>
  <anchor x="300" y="0" name="bottom"/>
  <anchor x="300" y="546" name="top"/>
  <outline>
    <contour>
      <point x="299" y="-10" type="curve" smooth="yes"/>
      <point x="471" y="-10"/>
      <point x="526" y="104"/>
      <point x="526" y="249" type="curve" smooth="yes"/>
      <point x="526" y="546" type="line"/>
      <point x="402" y="546" type="line"/>
      <point x="402" y="244" type="line" smooth="yes"/>
      <point x="402" y="142"/>
      <point x="369" y="100"/>
      <point x="305" y="100" type="curve" smooth="yes"/>
      <point x="238" y="100"/>
      <point x="208" y="142"/>
      <point x="208" y="244" type="curve" smooth="yes"/>
      <point x="208" y="546" type="line"/>
      <point x="84" y="546" type="line"/>
      <point x="84" y="249" type="line" smooth="yes"/>
      <point x="84" y="104"/>
      <point x="130" y="-10"/>
    </contour>
  </outline>
</glyph>
<glyph name="uni1D24" format="2">
  <advance width="588"/>
  <unicode hex="1D24"/>
  <anchor x="294" y="0" name="bottom"/>
  <anchor x="290" y="760" name="top"/>
  <outline>
    <contour>
      <point x="301" y="-10" type="curve" smooth="yes"/>
      <point x="377" y="-10"/>
      <point x="445" y="8"/>
      <point x="522" y="48" type="curve"/>
      <point x="468" y="158" type="line"/>
      <point x="419" y="130"/>
      <point x="362" y="113"/>
      <point x="317" y="113" type="curve" smooth="yes"/>
      <point x="257" y="113"/>
      <point x="215" y="141"/>
      <point x="215" y="192" type="curve" smooth="yes"/>
      <point x="215" y="247"/>
      <point x="266" y="286"/>
      <point x="381" y="317" type="curve"/>
      <point x="381" y="374" type="line"/>
      <point x="502" y="426"/>
      <point x="548" y="485"/>
      <point x="548" y="584" type="curve" smooth="yes"/>
      <point x="548" y="694"/>
      <point x="452" y="766"/>
      <point x="306" y="766" type="curve" smooth="yes"/>
      <point x="231" y="766"/>
      <point x="160" y="747"/>
      <point x="85" y="707" type="curve"/>
      <point x="139" y="597" type="line"/>
      <point x="187" y="624"/>
      <point x="246" y="641"/>
      <point x="290" y="641" type="curve" smooth="yes"/>
      <point x="350" y="641"/>
      <point x="392" y="614"/>
      <point x="392" y="564" type="curve" smooth="yes"/>
      <point x="392" y="507"/>
      <point x="336" y="469"/>
      <point x="225" y="438" type="curve"/>
      <point x="225" y="382" type="line"/>
      <point x="103" y="329"/>
      <point x="58" y="270"/>
      <point x="58" y="172" type="curve" smooth="yes"/>
      <point x="58" y="61"/>
      <point x="155" y="-10"/>
    </contour>
  </outline>
</glyph>
<glyph name="uni1D2F" format="2">
  <advance width="600"/>
  <unicode hex="1D2F"/>
  <anchor x="303.0" y="287.0" name="bottom"/>
  <anchor x="303.0" y="715.4" name="top"/>
  <anchor x="485.0" y="715.4" name="topright"/>
  <outline>
    <contour>
      <point x="98" y="473" type="line"/>
      <point x="502" y="473" type="line"/>
      <point x="502" y="547" type="line"/>
      <point x="98" y="547" type="line"/>
    </contour>
    <component base="B" xScale="0.65" yScale="0.6" xOffset="108" yOffset="287"/>
  </outline>
</glyph>
<glyph name="uni1D6C" format="2">
  <advance width="600"/>
  <unicode hex="1D6C"/>
  <anchor x="300" y="0" name="bottom"/>
  <anchor x="300" y="760" name="top"/>
  <anchor x="580" y="760" name="topright"/>
  <outline>
    <contour>
      <point x="-64" y="591" type="curve"/>
      <point x="8" y="591" type="line"/>
      <point x="14" y="627"/>
      <point x="24" y="643"/>
      <point x="48" y="643" type="curve" smooth="yes"/>
      <point x="92" y="643"/>
      <point x="150" y="592"/>
      <point x="206" y="592" type="curve" smooth="yes"/>
      <point x="264" y="592"/>
      <point x="311" y="642"/>
      <point x="316" y="742" type="curve"/>
      <point x="244" y="742" type="line"/>
      <point x="237" y="708"/>
      <point x="227" y="690"/>
      <point x="204" y="690" type="curve" smooth="yes"/>
      <point x="156" y="690"/>
      <point x="104" y="741"/>
      <point x="46" y="741" type="curve" smooth="yes"/>
      <point x="-24" y="741"/>
      <point x="-59" y="674"/>
    </contour>
    <component base="b"/>
  </outline>
</glyph>
<glyph name="uni1D6D" format="2">
  <advance width="600"/>
  <unicode hex="1D6D"/>
  <anchor x="300" y="0" name="bottom"/>
  <anchor x="300" y="273" name="center"/>
  <anchor x="300" y="760" name="top"/>
  <anchor x="580" y="760" name="topright"/>
  <outline>
    <contour>
      <point x="284" y="605" type="curve"/>
      <point x="356" y="605" type="line"/>
      <point x="362" y="641"/>
      <point x="372" y="657"/>
      <point x="396" y="657" type="curve" smooth="yes"/>
      <point x="440" y="657"/>
      <point x="498" y="606"/>
      <point x="554" y="606" type="curve" smooth="yes"/>
      <point x="612" y="606"/>
      <point x="659" y="656"/>
      <point x="664" y="756" type="curve"/>
      <point x="592" y="756" type="line"/>
      <point x="585" y="722"/>
      <point x="575" y="704"/>
      <point x="552" y="704" type="curve" smooth="yes"/>
      <point x="504" y="704"/>
      <point x="452" y="755"/>
      <point x="394" y="755" type="curve" smooth="yes"/>
      <point x="324" y="755"/>
      <point x="289" y="688"/>
    </contour>
    <component base="d"/>
  </outline>
</glyph>
<glyph name="uni1D6F" format="2">
  <advance width="600"/>
  <unicode hex="1D6F"/>
  <anchor x="310" y="0" name="bottom"/>
  <anchor x="330" y="546" name="top"/>
  <anchor x="580" y="546" name="topright"/>
  <outline>
    <contour>
      <point x="-65" y="173" type="curve"/>
      <point x="8" y="173" type="line"/>
      <point x="10" y="221"/>
      <point x="32" y="245"/>
      <point x="87" y="245" type="curve" smooth="yes"/>
      <point x="225" y="245"/>
      <point x="364" y="174"/>
      <point x="518" y="174" type="curve" smooth="yes"/>
      <point x="616" y="174"/>
      <point x="666" y="227"/>
      <point x="669" y="325" type="curve"/>
      <point x="596" y="325" type="line"/>
      <point x="593" y="282"/>
      <point x="562" y="259"/>
      <point x="516" y="259" type="curve" smooth="yes"/>
      <point x="393" y="259"/>
      <point x="208" y="336"/>
      <point x="88" y="336" type="curve" smooth="yes"/>
      <point x="-5" y="336"/>
      <point x="-65" y="279"/>
    </contour>
    <component base="m"/>
  </outline>
</glyph>
<glyph name="uni1D7B" format="2">
  <advance width="600"/>
  <unicode hex="1D7B"/>
  <anchor x="300" y="0" name="bottom"/>
  <anchor x="300" y="546" name="top"/>
  <outline>
    <contour>
      <point x="121" y="230" type="line"/>
      <point x="478" y="230" type="line"/>
      <point x="478" y="327" type="line"/>
      <point x="121" y="327" type="line"/>
    </contour>
    <component base="uni026A"/>
  </outline>
</glyph>
<glyph name="uni1D7C" format="2">
  <advance width="600"/>
  <unicode hex="1D7C"/>
  <anchor x="393" y="0" name="bottom"/>
  <anchor x="288" y="546" name="top"/>
  <outline>
    <contour>
      <point x="111" y="266" type="line"/>
      <point x="468" y="266" type="line"/>
      <point x="468" y="363" type="line"/>
      <point x="111" y="363" type="line"/>
    </contour>
    <component base="iota"/>
  </outline>
</glyph>
<glyph name="uni1D7E" format="2">
  <advance width="600"/>
  <unicode hex="1D7E"/>
  <anchor x="300" y="-1.0" name="bottom"/>
  <anchor x="300" y="546.0799999999999" name="top"/>
  <anchor x="600" y="546.0799999999999" name="topright"/>
  <outline>
    <contour>
      <point x="0" y="268" type="line"/>
      <point x="600" y="268" type="line"/>
      <point x="600" y="365" type="line"/>
      <point x="0" y="365" type="line"/>
    </contour>
    <component base="u.sc" yScale="0.94" yOffset="-1"/>
  </outline>
</glyph>
<glyph name="uni1D7F" format="2">
  <advance width="600"/>
  <unicode hex="1D7F"/>
  <anchor x="299" y="0" name="bottom"/>
  <anchor x="299" y="546" name="top"/>
  <outline>
    <contour>
      <point x="0" y="214" type="line"/>
      <point x="600" y="214" type="line"/>
      <point x="600" y="311" type="line"/>
      <point x="0" y="311" type="line"/>
    </contour>
    <component base="uni028A" xOffset="-1"/>
  </outline>
</glyph>
<glyph name="uni1D85" format="2">
  <advance width="600"/>
  <unicode hex="1D85"/>
  <anchor x="315" y="0" name="bottom"/>
  <anchor x="315" y="376" name="center"/>
  <anchor x="300" y="760" name="top"/>
  <anchor x="498" y="760" name="topright"/>
  <outline>
    <contour>
      <point x="383" y="-236" type="curve" smooth="yes"/>
      <point x="502" y="-236"/>
      <point x="550" y="-158"/>
      <point x="550" y="-60" type="curve" smooth="yes"/>
      <point x="550" y="74" type="line"/>
      <point x="406" y="74" type="line"/>
      <point x="406" y="0" type="line"/>
      <point x="416" y="0" type="line"/>
      <point x="416" y="-41" type="line" smooth="yes"/>
      <point x="416" y="-104"/>
      <point x="389" y="-125"/>
      <point x="354" y="-125" type="curve" smooth="yes"/>
      <point x="332" y="-125"/>
      <point x="316" y="-122"/>
      <point x="296" y="-116" type="curve"/>
      <point x="296" y="-224" type="line"/>
      <point x="318" y="-231"/>
      <point x="353" y="-236"/>
    </contour>
    <component base="l"/>
  </outline>
</glyph>
<glyph name="uni1D88" format="2">
  <advance width="600"/>
  <unicode hex="1D88"/>
  <anchor x="340" y="-240" name="bottom"/>
  <anchor x="340" y="546" name="top"/>
  <anchor x="580" y="546" name="topright"/>
  <outline>
    <contour>
      <point x="360" y="-236" type="curve" smooth="yes"/>
      <point x="479" y="-236"/>
      <point x="527" y="-158"/>
      <point x="527" y="-60" type="curve" smooth="yes"/>
      <point x="527" y="114" type="line"/>
      <point x="383" y="114" type="line"/>
      <point x="383" y="0" type="line"/>
      <point x="393" y="0" type="line"/>
      <point x="393" y="-41" type="line" smooth="yes"/>
      <point x="393" y="-104"/>
      <point x="366" y="-125"/>
      <point x="331" y="-125" type="curve" smooth="yes"/>
      <point x="309" y="-125"/>
      <point x="293" y="-122"/>
      <point x="273" y="-116" type="curve"/>
      <point x="273" y="-224" type="line"/>
      <point x="295" y="-231"/>
      <point x="330" y="-236"/>
    </contour>
    <component base="p"/>
  </outline>
</glyph>
<glyph name="uni1D89" format="2">
  <advance width="600"/>
  <unicode hex="1D89"/>
  <anchor x="260" y="0" name="bottom"/>
  <anchor x="330" y="546" name="top"/>
  <anchor x="580" y="546" name="topright"/>
  <outline>
    <contour>
      <point x="304" y="-236" type="curve" smooth="yes"/>
      <point x="423" y="-236"/>
      <point x="471" y="-158"/>
      <point x="471" y="-60" type="curve" smooth="yes"/>
      <point x="471" y="84" type="line"/>
      <point x="327" y="84" type="line"/>
      <point x="327" y="0" type="line"/>
      <point x="337" y="0" type="line"/>
      <point x="337" y="-41" type="line" smooth="yes"/>
      <point x="337" y="-104"/>
      <point x="310" y="-125"/>
      <point x="275" y="-125" type="curve" smooth="yes"/>
      <point x="253" y="-125"/>
      <point x="237" y="-122"/>
      <point x="217" y="-116" type="curve"/>
      <point x="217" y="-224" type="line"/>
      <point x="239" y="-231"/>
      <point x="274" y="-236"/>
    </contour>
    <component base="r"/>
  </outline>
</glyph>
<glyph name="uni1D8A" format="2">
  <advance width="600"/>
  <unicode hex="1D8A"/>
  <anchor x="305" y="0" name="bottom"/>
  <anchor x="305" y="546" name="top"/>
  <anchor x="580" y="546" name="topright"/>
  <outline>
    <contour>
      <point x="277" y="-236" type="curve" smooth="yes"/>
      <point x="396" y="-236"/>
      <point x="444" y="-158"/>
      <point x="444" y="-60" type="curve" smooth="yes"/>
      <point x="444" y="114" type="line"/>
      <point x="300" y="94" type="line"/>
      <point x="300" y="0" type="line"/>
      <point x="310" y="0" type="line"/>
      <point x="310" y="-41" type="line" smooth="yes"/>
      <point x="310" y="-104"/>
      <point x="283" y="-125"/>
      <point x="248" y="-125" type="curve" smooth="yes"/>
      <point x="226" y="-125"/>
      <point x="210" y="-122"/>
      <point x="190" y="-116" type="curve"/>
      <point x="190" y="-224" type="line"/>
      <point x="212" y="-231"/>
      <point x="247" y="-236"/>
    </contour>
    <component base="s"/>
  </outline>
</glyph>
<glyph name="uni1D8B" format="2">
  <advance width="600"/>
  <unicode hex="1D8B"/>
  <anchor x="153" y="-240" name="bottom"/>
  <anchor x="299" y="763" name="top"/>
  <outline>
    <contour>
      <point x="268" y="0" type="line"/>
      <point x="423" y="0" type="line"/>
      <point x="423" y="114" type="line"/>
      <point x="268" y="114" type="line"/>
    </contour>
    <component base="uni0283" xOffset="-87"/>
    <component base="cyrillicbighooklc" xOffset="126"/>
  </outline>
</glyph>
<glyph name="uni1D90" format="2">
  <advance width="600"/>
  <unicode hex="1D90"/>
  <anchor x="300" y="0" name="bottom"/>
  <anchor x="300" y="546" name="top"/>
  <outline>
    <contour>
      <point x="599" y="-230" type="curve" smooth="yes"/>
      <point x="630" y="-230"/>
      <point x="662" y="-225"/>
      <point x="684" y="-217" type="curve"/>
      <point x="684" y="-113" type="line"/>
      <point x="670" y="-118"/>
      <point x="653" y="-122"/>
      <point x="636" y="-122" type="curve" smooth="yes"/>
      <point x="603" y="-122"/>
      <point x="586" y="-107"/>
      <point x="586" y="-64" type="curve" smooth="yes"/>
      <point x="586" y="115" type="line"/>
      <point x="453" y="10" type="line"/>
      <point x="453" y="-74" type="line" smooth="yes"/>
      <point x="453" y="-184"/>
      <point x="510" y="-230"/>
    </contour>
    <component base="uni0251"/>
  </outline>
</glyph>
<glyph name="uni1D92" format="2">
  <advance width="600"/>
  <unicode hex="1D92"/>
  <anchor x="310" y="0" name="bottom"/>
  <anchor x="310" y="10" name="ogonek"/>
  <anchor x="310" y="546" name="top"/>
  <anchor x="580" y="546" name="topright"/>
  <outline>
    <contour>
      <point x="547" y="-230" type="curve" smooth="yes"/>
      <point x="578" y="-230"/>
      <point x="610" y="-225"/>
      <point x="632" y="-217" type="curve"/>
      <point x="632" y="-113" type="line"/>
      <point x="618" y="-118"/>
      <point x="601" y="-122"/>
      <point x="584" y="-122" type="curve" smooth="yes"/>
      <point x="551" y="-122"/>
      <point x="534" y="-107"/>
      <point x="534" y="-64" type="curve" smooth="yes"/>
      <point x="534" y="146" type="line"/>
      <point x="410" y="24" type="line"/>
      <point x="410" y="-74" type="line" smooth="yes"/>
      <point x="410" y="-184"/>
      <point x="464" y="-230"/>
    </contour>
    <component base="e"/>
  </outline>
</glyph>
<glyph name="uni1D93" format="2">
  <advance width="600"/>
  <unicode hex="1D93"/>
  <anchor x="326" y="0" name="bottom"/>
  <anchor x="300" y="546" name="top"/>
  <outline>
    <contour>
      <point x="563" y="-230" type="curve" smooth="yes"/>
      <point x="594" y="-230"/>
      <point x="626" y="-225"/>
      <point x="648" y="-217" type="curve"/>
      <point x="648" y="-113" type="line"/>
      <point x="634" y="-118"/>
      <point x="617" y="-122"/>
      <point x="600" y="-122" type="curve" smooth="yes"/>
      <point x="567" y="-122"/>
      <point x="550" y="-107"/>
      <point x="550" y="-64" type="curve" smooth="yes"/>
      <point x="550" y="132" type="line"/>
      <point x="426" y="24" type="line"/>
      <point x="426" y="-74" type="line" smooth="yes"/>
      <point x="426" y="-184"/>
      <point x="480" y="-230"/>
    </contour>
    <component base="epsilon"/>
  </outline>
</glyph>
<glyph name="uni1D96" format="2">
  <advance width="600"/>
  <unicode hex="1D96"/>
  <anchor x="317" y="0" name="bottom"/>
  <anchor x="313" y="291" name="center"/>
  <anchor x="315" y="776" name="top"/>
  <anchor x="509" y="776" name="topright"/>
  <outline>
    <contour>
      <point x="515" y="-230" type="curve" smooth="yes"/>
      <point x="546" y="-230"/>
      <point x="578" y="-225"/>
      <point x="600" y="-217" type="curve"/>
      <point x="600" y="-113" type="line"/>
      <point x="586" y="-118"/>
      <point x="569" y="-122"/>
      <point x="552" y="-122" type="curve" smooth="yes"/>
      <point x="519" y="-122"/>
      <point x="502" y="-107"/>
      <point x="502" y="-64" type="curve" smooth="yes"/>
      <point x="502" y="77" type="line"/>
      <point x="378" y="24" type="line"/>
      <point x="378" y="-74" type="line" smooth="yes"/>
      <point x="378" y="-184"/>
      <point x="432" y="-230"/>
    </contour>
    <component base="i"/>
  </outline>
</glyph>
<glyph name="longsdiagonalstroke" format="2">
  <advance width="600"/>
  <unicode hex="1E9C"/>
  <anchor x="272" y="0" name="bottom"/>
  <anchor x="300" y="765" name="top"/>
  <outline>
    <contour>
      <point x="131" y="258" type="line"/>
      <point x="469" y="422" type="line"/>
      <point x="427" y="509" type="line"/>
      <point x="89" y="345" type="line"/>
    </contour>
    <component base="longs"/>
  </outline>
</glyph>
<glyph name="longshighstroke" format="2">
  <advance width="600"/>
  <unicode hex="1E9D"/>
  <anchor x="278" y="0" name="bottom"/>
  <anchor x="300" y="765" name="top"/>
  <outline>
    <contour>
      <point x="94" y="445" type="line"/>
      <point x="444" y="445" type="line"/>
      <point x="444" y="546" type="line"/>
      <point x="94" y="546" type="line"/>
    </contour>
    <component base="longs"/>
  </outline>
</glyph>
<glyph name="uni1F18" format="2">
  <advance width="600"/>
  <unicode hex="1F18"/>
  <anchor x="323" y="0" name="bottom"/>
  <anchor x="313" y="714" name="top"/>
  <outline>
    <contour>
      <point x="164" y="0" type="line"/>
      <point x="530" y="0" type="line"/>
      <point x="530" y="125" type="line"/>
      <point x="304" y="125" type="line"/>
      <point x="304" y="308" type="line"/>
      <point x="515" y="308" type="line"/>
      <point x="515" y="433" type="line"/>
      <point x="304" y="433" type="line"/>
      <point x="304" y="589" type="line"/>
      <point x="530" y="589" type="line"/>
      <point x="530" y="714" type="line"/>
      <point x="164" y="714" type="line"/>
    </contour>
    <component base="uni1FBD" xOffset="-239" yOffset="-69"/>
  </outline>
</glyph>
<glyph name="uni1F3A" format="2">
  <advance width="600"/>
  <unicode hex="1F3A"/>
  <anchor x="439" y="0" name="bottom"/>
  <anchor x="439" y="714" name="top"/>
  <outline>
    <contour>
      <point x="296" y="0" type="line"/>
      <point x="586" y="0" type="line"/>
      <point x="586" y="100" type="line"/>
      <point x="509" y="116" type="line"/>
      <point x="509" y="598" type="line"/>
      <point x="586" y="614" type="line"/>
      <point x="586" y="714" type="line"/>
      <point x="296" y="714" type="line"/>
      <point x="296" y="614" type="line"/>
      <point x="370" y="598" type="line"/>
      <point x="370" y="116" type="line"/>
      <point x="296" y="100" type="line"/>
    </contour>
    <component base="uni1FCD" xOffset="-176" yOffset="-52"/>
  </outline>
</glyph>
<glyph name="uni1F3F" format="2">
  <advance width="600"/>
  <unicode hex="1F3F"/>
  <anchor x="445" y="0" name="bottom"/>
  <anchor x="445" y="714" name="top"/>
  <outline>
    <contour>
      <point x="296" y="0" type="line"/>
      <point x="586" y="0" type="line"/>
      <point x="586" y="100" type="line"/>
      <point x="509" y="116" type="line"/>
      <point x="509" y="598" type="line"/>
      <point x="586" y="614" type="line"/>
      <point x="586" y="714" type="line"/>
      <point x="296" y="714" type="line"/>
      <point x="296" y="614" type="line"/>
      <point x="370" y="598" type="line"/>
      <point x="370" y="116" type="line"/>
      <point x="296" y="100" type="line"/>
    </contour>
    <component base="uni1FDF" xOffset="-166" yOffset="-50"/>
  </outline>
</glyph>
<glyph name="uni1FC8" format="2">
  <advance width="600"/>
  <unicode hex="1FC8"/>
  <anchor x="370" y="0" name="bottom"/>
  <anchor x="361" y="714" name="top"/>
  <anchor x="65" y="714" name="topleft"/>
  <outline>
    <contour>
      <point x="164" y="0" type="line"/>
      <point x="530" y="0" type="line"/>
      <point x="530" y="125" type="line"/>
      <point x="304" y="125" type="line"/>
      <point x="304" y="308" type="line"/>
      <point x="515" y="308" type="line"/>
      <point x="515" y="433" type="line"/>
      <point x="304" y="433" type="line"/>
      <point x="304" y="589" type="line"/>
      <point x="530" y="589" type="line"/>
      <point x="530" y="714" type="line"/>
      <point x="164" y="714" type="line"/>
    </contour>
    <component base="uni1FEF" xOffset="-191" yOffset="-52"/>
  </outline>
</glyph>
<glyph name="uni1FC9" format="2">
  <advance width="600"/>
  <unicode hex="1FC9"/>
  <anchor x="300" y="0" name="bottom"/>
  <anchor x="300" y="714" name="top"/>
  <outline>
    <contour>
      <point x="164" y="0" type="line"/>
      <point x="530" y="0" type="line"/>
      <point x="530" y="125" type="line"/>
      <point x="304" y="125" type="line"/>
      <point x="304" y="308" type="line"/>
      <point x="515" y="308" type="line"/>
      <point x="515" y="433" type="line"/>
      <point x="304" y="433" type="line"/>
      <point x="304" y="589" type="line"/>
      <point x="530" y="589" type="line"/>
      <point x="530" y="714" type="line"/>
      <point x="164" y="714" type="line"/>
    </contour>
    <component base="uni1FFD" xOffset="-288" yOffset="-52"/>
  </outline>
</glyph>
<glyph name="uni1FCA" format="2">
  <advance width="600"/>
  <unicode hex="1FCA"/>
  <anchor x="351" y="0" name="bottom"/>
  <anchor x="351" y="377" name="center"/>
  <anchor x="351" y="714" name="top"/>
  <anchor x="71" y="714" name="topleft"/>
  <outline>
    <contour>
      <point x="145" y="0" type="line"/>
      <point x="290" y="0" type="line"/>
      <point x="290" y="310" type="line"/>
      <point x="410" y="310" type="line"/>
      <point x="410" y="0" type="line"/>
      <point x="555" y="0" type="line"/>
      <point x="555" y="714" type="line"/>
      <point x="410" y="714" type="line"/>
      <point x="410" y="435" type="line"/>
      <point x="290" y="435" type="line"/>
      <point x="290" y="714" type="line"/>
      <point x="145" y="714" type="line"/>
    </contour>
    <component base="uni1FEF" xOffset="-209" yOffset="-52"/>
  </outline>
</glyph>
<glyph name="uni1FCB" format="2">
  <advance width="600"/>
  <unicode hex="1FCB"/>
  <anchor x="349" y="0" name="bottom"/>
  <anchor x="349" y="357" name="center"/>
  <anchor x="349" y="714" name="top"/>
  <anchor x="55" y="714" name="topleft"/>
  <outline>
    <contour>
      <point x="145" y="0" type="line"/>
      <point x="290" y="0" type="line"/>
      <point x="290" y="310" type="line"/>
      <point x="410" y="310" type="line"/>
      <point x="410" y="0" type="line"/>
      <point x="555" y="0" type="line"/>
      <point x="555" y="714" type="line"/>
      <point x="410" y="714" type="line"/>
      <point x="410" y="435" type="line"/>
      <point x="290" y="435" type="line"/>
      <point x="290" y="714" type="line"/>
      <point x="145" y="714" type="line"/>
    </contour>
    <component base="uni1FFD" xOffset="-297" yOffset="-52"/>
  </outline>
</glyph>
<glyph name="uni1FEF" format="2">
  <advance width="600"/>
  <unicode hex="1FEF"/>
  <anchor x="300" y="546" name="_top"/>
  <anchor x="300" y="766" name="top"/>
  <outline>
    <contour>
      <point x="272" y="606" type="curve"/>
      <point x="341" y="606" type="line"/>
      <point x="341" y="618" type="line"/>
      <point x="329" y="653"/>
      <point x="310" y="717"/>
      <point x="300" y="766" type="curve"/>
      <point x="170" y="766" type="line"/>
      <point x="170" y="756" type="line"/>
      <point x="191" y="713"/>
      <point x="236" y="647"/>
    </contour>
  </outline>
</glyph>
<glyph name="uni1FF9" format="2">
  <advance width="600"/>
  <unicode hex="1FF9"/>
  <anchor x="336" y="0" name="bottom"/>
  <anchor x="336" y="714" name="top"/>
  <outline>
    <contour>
      <point x="336" y="-10" type="curve" smooth="yes"/>
      <point x="493" y="-10"/>
      <point x="570" y="107"/>
      <point x="570" y="358" type="curve" smooth="yes"/>
      <point x="570" y="608"/>
      <point x="493" y="726"/>
      <point x="336" y="726" type="curve" smooth="yes"/>
      <point x="180" y="726"/>
      <point x="102" y="610"/>
      <point x="102" y="358" type="curve" smooth="yes"/>
      <point x="102" y="107"/>
      <point x="179" y="-10"/>
    </contour>
    <contour>
      <point x="336" y="115" type="curve" smooth="yes"/>
      <point x="279" y="115"/>
      <point x="249" y="178"/>
      <point x="249" y="358" type="curve" smooth="yes"/>
      <point x="249" y="537"/>
      <point x="279" y="601"/>
      <point x="336" y="601" type="curve" smooth="yes"/>
      <point x="393" y="601"/>
      <point x="423" y="538"/>
      <point x="423" y="359" type="curve" smooth="yes"/>
      <point x="423" y="177"/>
      <point x="392" y="115"/>
    </contour>
    <component base="uni1FFD" xOffset="-275" yOffset="-52"/>
  </outline>
</glyph>
<glyph name="uni1FFD" format="2">
  <advance width="600"/>
  <unicode hex="1FFD"/>
  <anchor x="300" y="546" name="_top"/>
  <anchor x="300" y="766" name="top"/>
  <outline>
    <contour>
      <point x="261" y="606" type="line"/>
      <point x="330" y="606" type="line"/>
      <point x="366" y="647"/>
      <point x="411" y="713"/>
      <point x="432" y="756" type="curve"/>
      <point x="432" y="766" type="line"/>
      <point x="302" y="766" type="line"/>
      <point x="292" y="717"/>
      <point x="273" y="653"/>
      <point x="261" y="618" type="curve"/>
    </contour>
  </outline>
</glyph>
<glyph name="plussuperior" format="2">
  <advance width="600"/>
  <unicode hex="207A"/>
  <outline>
    <contour>
      <point x="260" y="304" type="line"/>
      <point x="339" y="304" type="line"/>
      <point x="339" y="414" type="line"/>
      <point x="444" y="414" type="line"/>
      <point x="444" y="482" type="line"/>
      <point x="339" y="482" type="line"/>
      <point x="339" y="593" type="line"/>
      <point x="260" y="593" type="line"/>
      <point x="260" y="482" type="line"/>
      <point x="155" y="482" type="line"/>
      <point x="155" y="414" type="line"/>
      <point x="260" y="414" type="line"/>
    </contour>
  </outline>
</glyph>
<glyph name="equalsuperior" format="2">
  <advance width="600"/>
  <unicode hex="207C"/>
  <outline>
    <contour>
      <point x="155" y="472" type="line"/>
      <point x="444" y="472" type="line"/>
      <point x="444" y="540" type="line"/>
      <point x="155" y="540" type="line"/>
    </contour>
    <contour>
      <point x="155" y="355" type="line"/>
      <point x="444" y="355" type="line"/>
      <point x="444" y="423" type="line"/>
      <point x="155" y="423" type="line"/>
    </contour>
  </outline>
</glyph>
<glyph name="parenleftsuperior" format="2">
  <advance width="600"/>
  <unicode hex="207D"/>
  <outline>
    <contour>
      <point x="301" y="221" type="curve"/>
      <point x="387" y="221" type="line"/>
      <point x="327" y="297"/>
      <point x="300" y="400"/>
      <point x="300" y="499" type="curve" smooth="yes"/>
      <point x="300" y="599"/>
      <point x="328" y="701"/>
      <point x="388" y="778" type="curve"/>
      <point x="301" y="778" type="line"/>
      <point x="238" y="704"/>
      <point x="211" y="605"/>
      <point x="211" y="498" type="curve" smooth="yes"/>
      <point x="211" y="391"/>
      <point x="238" y="291"/>
    </contour>
  </outline>
</glyph>
<glyph name="parenrightsuperior" format="2">
  <advance width="600"/>
  <unicode hex="207E"/>
  <outline>
    <contour>
      <point x="211" y="221" type="curve"/>
      <point x="298" y="221" type="line"/>
      <point x="360" y="295"/>
      <point x="388" y="394"/>
      <point x="388" y="501" type="curve" smooth="yes"/>
      <point x="388" y="605"/>
      <point x="361" y="705"/>
      <point x="298" y="778" type="curve"/>
      <point x="212" y="778" type="line"/>
      <point x="271" y="702"/>
      <point x="299" y="600"/>
      <point x="299" y="501" type="curve" smooth="yes"/>
      <point x="299" y="401"/>
      <point x="272" y="298"/>
    </contour>
  </outline>
</glyph>
<glyph name="uni20A1" format="2">
  <advance width="600"/>
  <unicode hex="20A1"/>
  <anchor x="336" y="0" name="bottom"/>
  <anchor x="354" y="714" name="top"/>
  <anchor x="580" y="714" name="topright"/>
  <outline>
    <contour>
      <point x="306" y="-58" type="line"/>
      <point x="369" y="-58" type="line"/>
      <point x="535" y="759" type="line"/>
      <point x="472" y="759" type="line"/>
    </contour>
    <contour>
      <point x="174" y="-58" type="line"/>
      <point x="237" y="-58" type="line"/>
      <point x="403" y="759" type="line"/>
      <point x="340" y="759" type="line"/>
    </contour>
    <component base="C"/>
  </outline>
</glyph>
<glyph name="uni20A5" format="2">
  <advance width="600"/>
  <unicode hex="20A5"/>
  <anchor x="310" y="0" name="bottom"/>
  <anchor x="330" y="546" name="top"/>
  <anchor x="580" y="546" name="topright"/>
  <outline>
    <contour>
      <point x="62" y="-110" type="line"/>
      <point x="162" y="-110" type="line"/>
      <point x="523" y="666" type="line"/>
      <point x="423" y="666" type="line"/>
    </contour>
    <component base="m"/>
  </outline>
</glyph>
<glyph name="uni20A9" format="2">
  <advance width="600"/>
  <unicode hex="20A9"/>
  <outline>
    <contour>
      <point x="110" y="0" type="line"/>
      <point x="227" y="0" type="line"/>
      <point x="262" y="247" type="line"/>
      <point x="343" y="247" type="line"/>
      <point x="378" y="0" type="line"/>
      <point x="495" y="0" type="line"/>
      <point x="529" y="247" type="line"/>
      <point x="602" y="247" type="line"/>
      <point x="602" y="321" type="line"/>
      <point x="539" y="321" type="line"/>
      <point x="549" y="393" type="line"/>
      <point x="602" y="393" type="line"/>
      <point x="602" y="467" type="line"/>
      <point x="559" y="467" type="line"/>
      <point x="593" y="714" type="line"/>
      <point x="499" y="714" type="line"/>
      <point x="468" y="467" type="line"/>
      <point x="391" y="467" type="line"/>
      <point x="356" y="714" type="line"/>
      <point x="250" y="714" type="line"/>
      <point x="214" y="467" type="line"/>
      <point x="137" y="467" type="line"/>
      <point x="106" y="714" type="line"/>
      <point x="12" y="714" type="line"/>
      <point x="46" y="467" type="line"/>
      <point x="4" y="467" type="line"/>
      <point x="4" y="393" type="line"/>
      <point x="56" y="393" type="line"/>
      <point x="66" y="321" type="line"/>
      <point x="4" y="321" type="line"/>
      <point x="4" y="247" type="line"/>
      <point x="76" y="247" type="line"/>
    </contour>
    <contour>
      <point x="173" y="147" type="line"/>
      <point x="164" y="247" type="line"/>
      <point x="184" y="247" type="line"/>
    </contour>
    <contour>
      <point x="155" y="321" type="line"/>
      <point x="147" y="393" type="line"/>
      <point x="203" y="393" type="line"/>
      <point x="194" y="321" type="line"/>
    </contour>
    <contour>
      <point x="432" y="147" type="line"/>
      <point x="421" y="247" type="line"/>
      <point x="442" y="247" type="line"/>
    </contour>
    <contour>
      <point x="274" y="321" type="line"/>
      <point x="284" y="393" type="line"/>
      <point x="321" y="393" type="line"/>
      <point x="331" y="321" type="line"/>
    </contour>
    <contour>
      <point x="411" y="321" type="line"/>
      <point x="402" y="393" type="line"/>
      <point x="459" y="393" type="line"/>
      <point x="452" y="321" type="line"/>
    </contour>
    <contour>
      <point x="292" y="467" type="line"/>
      <point x="302" y="559" type="line"/>
      <point x="313" y="467" type="line"/>
    </contour>
  </outline>
</glyph>
<glyph name="uni20AE" format="2">
  <advance width="600"/>
  <unicode hex="20AE"/>
  <anchor x="300" y="0" name="bottom"/>
  <anchor x="300" y="357" name="center"/>
  <anchor x="300" y="714" name="top"/>
  <anchor x="580" y="714" name="topright"/>
  <outline>
    <contour>
      <point x="134" y="242" type="line"/>
      <point x="500" y="493" type="line"/>
      <point x="458" y="554" type="line"/>
      <point x="92" y="303" type="line"/>
    </contour>
    <contour>
      <point x="133" y="64" type="line"/>
      <point x="499" y="314" type="line"/>
      <point x="457" y="375" type="line"/>
      <point x="92" y="125" type="line"/>
    </contour>
    <component base="T"/>
  </outline>
</glyph>
<glyph name="uni20B3" format="2">
  <advance width="600"/>
  <unicode hex="20B3"/>
  <anchor x="300" y="714" name="bottom"/>
  <anchor x="300" y="0" name="top"/>
  <anchor x="20" y="0" name="topright"/>
  <outline>
    <contour>
      <point x="10" y="373" type="line"/>
      <point x="590" y="373" type="line"/>
      <point x="590" y="447" type="line"/>
      <point x="10" y="447" type="line"/>
    </contour>
    <contour>
      <point x="10" y="227" type="line"/>
      <point x="590" y="227" type="line"/>
      <point x="590" y="301" type="line"/>
      <point x="10" y="301" type="line"/>
    </contour>
    <component base="V" xScale="-1" yScale="-1" xOffset="600" yOffset="714"/>
  </outline>
</glyph>
<glyph name="accountof" format="2">
  <advance width="600"/>
  <unicode hex="2100"/>
  <anchor x="148.51800000000003" y="394.512" name="bottom"/>
  <anchor x="152.154" y="716.298" name="top"/>
  <outline>
    <contour>
      <point x="478" y="-9" type="curve" smooth="yes"/>
      <point x="523" y="-9"/>
      <point x="550" y="-3"/>
      <point x="577" y="14" type="curve"/>
      <point x="577" y="87" type="line"/>
      <point x="550" y="69"/>
      <point x="522" y="60"/>
      <point x="486" y="60" type="curve" smooth="yes"/>
      <point x="442" y="60"/>
      <point x="416" y="89"/>
      <point x="416" y="151" type="curve" smooth="yes"/>
      <point x="416" y="214"/>
      <point x="439" y="245"/>
      <point x="486" y="245" type="curve" smooth="yes"/>
      <point x="510" y="245"/>
      <point x="533" y="237"/>
      <point x="561" y="227" type="curve"/>
      <point x="587" y="292" type="line"/>
      <point x="562" y="303"/>
      <point x="531" y="313"/>
      <point x="486" y="313" type="curve" smooth="yes"/>
      <point x="391" y="313"/>
      <point x="326" y="264"/>
      <point x="326" y="151" type="curve" smooth="yes"/>
      <point x="326" y="40"/>
      <point x="381" y="-9"/>
    </contour>
    <component base="ordfeminine" xScale="0.909" yScale="0.909" xOffset="-126" yOffset="60"/>
    <component base="fraction" xScale="0.905" xOffset="323"/>
  </outline>
</glyph>
<glyph name="planckconstantovertwopi" format="2">
  <advance width="600"/>
  <unicode hex="210F"/>
  <outline>
    <contour>
      <point x="42" y="586" type="line"/>
      <point x="451" y="586" type="line"/>
      <point x="467" y="680" type="line"/>
      <point x="58" y="680" type="line"/>
    </contour>
    <component base="planckconstant"/>
  </outline>
</glyph>
<glyph name="response" format="2">
  <advance width="600"/>
  <unicode hex="211F"/>
  <anchor x="325" y="0" name="bottom"/>
  <anchor x="300" y="714" name="top"/>
  <anchor x="580" y="714" name="topright"/>
  <outline>
    <contour>
      <point x="171" y="-145" type="line"/>
      <point x="240" y="-145" type="line"/>
      <point x="465" y="805" type="line"/>
      <point x="182" y="878" type="line"/>
      <point x="164" y="809" type="line"/>
      <point x="384" y="757" type="line"/>
    </contour>
    <component base="R"/>
  </outline>
</glyph>
<glyph name="notequal" format="2">
  <advance width="600"/>
  <unicode hex="2260"/>
  <outline>
    <contour>
      <point x="257" y="57" type="line"/>
      <point x="462" y="598" type="line"/>
      <point x="355" y="639" type="line"/>
      <point x="151" y="97" type="line"/>
    </contour>
    <component base="equal"/>
  </outline>
</glyph>
<glyph name="uni2C60" format="2">
  <advance width="600"/>
  <unicode hex="2C60"/>
  <anchor x="372" y="0" name="bottom"/>
  <anchor x="202" y="714" name="top"/>
  <anchor x="340" y="357" name="center"/>
  <anchor x="494" y="714" name="topright"/>
  <outline>
    <contour>
      <point x="40" y="382" type="line"/>
      <point x="436" y="382" type="line"/>
      <point x="436" y="466" type="line"/>
      <point x="40" y="466" type="line"/>
    </contour>
    <contour>
      <point x="40" y="222" type="line"/>
      <point x="436" y="222" type="line"/>
      <point x="436" y="308" type="line"/>
      <point x="40" y="308" type="line"/>
    </contour>
    <component base="L" xOffset="40"/>
  </outline>
</glyph>
<glyph name="uni2C65" format="2">
  <advance width="600"/>
  <unicode hex="2C65"/>
  <anchor x="300" y="-208" name="bottom"/>
  <anchor x="290" y="760" name="top"/>
  <anchor x="540" y="10" name="ogonek"/>
  <anchor x="580" y="546" name="topright"/>
  <outline>
    <contour>
      <point x="105" y="-208" type="line"/>
      <point x="202" y="-208" type="line"/>
      <point x="547" y="760" type="line"/>
      <point x="451" y="760" type="line"/>
    </contour>
    <component base="a"/>
  </outline>
</glyph>
<glyph name="uni2C68" format="2">
  <advance width="600"/>
  <unicode hex="2C68"/>
  <anchor x="300" y="-189" name="bottom"/>
  <anchor x="300" y="273" name="center"/>
  <anchor x="129" y="760" name="top"/>
  <anchor x="580" y="760" name="topright"/>
  <outline>
    <contour>
      <point x="517" y="-196" type="line"/>
      <point x="651" y="-196" type="line"/>
      <point x="651" y="114" type="line"/>
      <point x="550" y="114" type="line"/>
      <point x="451" y="0" type="line"/>
      <point x="517" y="0" type="line"/>
    </contour>
    <component base="h"/>
  </outline>
</glyph>
<glyph name="uni2C69" format="2">
  <advance width="600"/>
  <unicode hex="2C69"/>
  <anchor x="300" y="-189" name="bottom"/>
  <anchor x="300" y="714" name="top"/>
  <anchor x="580" y="714" name="topright"/>
  <outline>
    <contour>
      <point x="434" y="-208" type="line"/>
      <point x="560" y="-208" type="line"/>
      <point x="560" y="125" type="line"/>
      <point x="448" y="125" type="line"/>
      <point x="434" y="0" type="line"/>
    </contour>
    <component base="K"/>
  </outline>
</glyph>
<glyph name="uni2C6A" format="2">
  <advance width="600"/>
  <unicode hex="2C6A"/>
  <anchor x="300" y="-189" name="bottom"/>
  <anchor x="310" y="760" name="top"/>
  <anchor x="580" y="760" name="topright"/>
  <outline>
    <contour>
      <point x="451" y="-196" type="line"/>
      <point x="585" y="-196" type="line"/>
      <point x="585" y="114" type="line"/>
      <point x="474" y="114" type="line"/>
      <point x="451" y="0" type="line"/>
    </contour>
    <component base="k"/>
  </outline>
</glyph>
<glyph name="uni2C6B" format="2">
  <advance width="600"/>
  <unicode hex="2C6B"/>
  <anchor x="312" y="-190" name="bottom"/>
  <anchor x="312" y="714" name="top"/>
  <anchor x="580" y="714" name="topright"/>
  <outline>
    <contour>
      <point x="398" y="-208" type="line"/>
      <point x="530" y="-208" type="line"/>
      <point x="530" y="125" type="line"/>
      <point x="418" y="125" type="line"/>
      <point x="398" y="0" type="line"/>
    </contour>
    <component base="Z"/>
  </outline>
</glyph>
<glyph name="uni2C6C" format="2">
  <advance width="600"/>
  <unicode hex="2C6C"/>
  <anchor x="300" y="-189" name="bottom"/>
  <anchor x="300" y="546" name="top"/>
  <anchor x="580" y="546" name="topright"/>
  <outline>
    <contour>
      <point x="401" y="-196" type="line"/>
      <point x="535" y="-196" type="line"/>
      <point x="535" y="114" type="line"/>
      <point x="424" y="114" type="line"/>
      <point x="401" y="0" type="line"/>
    </contour>
    <component base="z"/>
  </outline>
</glyph>
<glyph name="uni2C7E" format="2">
  <advance width="600"/>
  <unicode hex="2C7E"/>
  <anchor x="300" y="0" name="bottom"/>
  <anchor x="314" y="714" name="top"/>
  <anchor x="580" y="714" name="topright"/>
  <outline>
    <contour>
      <point x="399" y="-239" type="curve" smooth="yes"/>
      <point x="441" y="-239"/>
      <point x="482" y="-232"/>
      <point x="506" y="-221" type="curve"/>
      <point x="506" y="-106" type="line"/>
      <point x="484" y="-117"/>
      <point x="461" y="-121"/>
      <point x="435" y="-121" type="curve" smooth="yes"/>
      <point x="386" y="-121"/>
      <point x="359" y="-106"/>
      <point x="331" y="-47" type="curve" smooth="yes"/>
      <point x="324" y="-32"/>
      <point x="319" y="-21"/>
      <point x="304" y="-6" type="curve"/>
      <point x="70" y="33" type="line"/>
      <point x="150" y="-4"/>
      <point x="163" y="-29"/>
      <point x="189" y="-82" type="curve" smooth="yes"/>
      <point x="231" y="-168"/>
      <point x="267" y="-239"/>
    </contour>
    <component base="S"/>
  </outline>
</glyph>
<glyph name="editorialcoronis" format="2">
  <advance width="600"/>
  <unicode hex="2E0E"/>
  <outline>
    <contour>
      <point x="307" y="287" type="curve" smooth="yes"/>
      <point x="341" y="287"/>
      <point x="369" y="315"/>
      <point x="369" y="349" type="curve" smooth="yes"/>
      <point x="369" y="358"/>
      <point x="366" y="367"/>
      <point x="363" y="375" type="curve"/>
      <point x="806" y="375" type="line"/>
      <point x="806" y="422" type="line"/>
      <point x="363" y="422" type="line"/>
      <point x="366" y="430"/>
      <point x="369" y="439"/>
      <point x="369" y="448" type="curve" smooth="yes"/>
      <point x="369" y="482"/>
      <point x="341" y="510"/>
      <point x="307" y="510" type="curve" smooth="yes"/>
      <point x="273" y="510"/>
      <point x="245" y="482"/>
      <point x="245" y="448" type="curve" smooth="yes"/>
      <point x="245" y="439"/>
      <point x="247" y="430"/>
      <point x="251" y="422" type="curve"/>
      <point x="-206" y="422" type="line"/>
      <point x="-206" y="375" type="line"/>
      <point x="251" y="375" type="line"/>
      <point x="247" y="367"/>
      <point x="245" y="358"/>
      <point x="245" y="349" type="curve" smooth="yes"/>
      <point x="245" y="315"/>
      <point x="273" y="287"/>
    </contour>
    <contour>
      <point x="239" y="-256" type="curve"/>
      <point x="239" y="-293" type="line"/>
      <point x="317" y="-274"/>
      <point x="358" y="-236"/>
      <point x="358" y="-182" type="curve" smooth="yes"/>
      <point x="358" y="-145"/>
      <point x="334" y="-119"/>
      <point x="297" y="-119" type="curve" smooth="yes"/>
      <point x="267" y="-119"/>
      <point x="249" y="-133"/>
      <point x="249" y="-158" type="curve" smooth="yes"/>
      <point x="249" y="-193"/>
      <point x="297" y="-184"/>
      <point x="297" y="-210" type="curve" smooth="yes"/>
      <point x="297" y="-228"/>
      <point x="277" y="-244"/>
    </contour>
    <contour>
      <point x="216" y="-41" type="line"/>
      <point x="398" y="-41" type="line"/>
      <point x="398" y="6" type="line"/>
      <point x="216" y="6" type="line"/>
    </contour>
    <contour>
      <point x="80" y="91" type="line"/>
      <point x="534" y="91" type="line"/>
      <point x="534" y="138" type="line"/>
      <point x="80" y="138" type="line"/>
    </contour>
    <contour>
      <point x="-56" y="233" type="line"/>
      <point x="670" y="233" type="line"/>
      <point x="670" y="280" type="line"/>
      <point x="-56" y="280" type="line"/>
    </contour>
    <contour>
      <point x="307" y="316" type="curve" smooth="yes"/>
      <point x="288" y="316"/>
      <point x="274" y="332"/>
      <point x="274" y="349" type="curve" smooth="yes"/>
      <point x="274" y="359"/>
      <point x="278" y="369"/>
      <point x="285" y="375" type="curve"/>
      <point x="328" y="375" type="line"/>
      <point x="336" y="369"/>
      <point x="340" y="359"/>
      <point x="340" y="349" type="curve" smooth="yes"/>
      <point x="340" y="330"/>
      <point x="326" y="316"/>
    </contour>
    <contour>
      <point x="328" y="422" type="curve"/>
      <point x="286" y="422" type="line"/>
      <point x="278" y="428"/>
      <point x="274" y="438"/>
      <point x="274" y="448" type="curve" smooth="yes"/>
      <point x="274" y="467"/>
      <point x="288" y="481"/>
      <point x="307" y="481" type="curve" smooth="yes"/>
      <point x="326" y="481"/>
      <point x="340" y="467"/>
      <point x="340" y="448" type="curve" smooth="yes"/>
      <point x="340" y="437"/>
      <point x="336" y="428"/>
    </contour>
    <contour>
      <point x="-56" y="517" type="line"/>
      <point x="670" y="517" type="line"/>
      <point x="670" y="564" type="line"/>
      <point x="-56" y="564" type="line"/>
    </contour>
    <contour>
      <point x="80" y="659" type="line"/>
      <point x="534" y="659" type="line"/>
      <point x="534" y="706" type="line"/>
      <point x="80" y="706" type="line"/>
    </contour>
    <contour>
      <point x="216" y="791" type="line"/>
      <point x="398" y="791" type="line"/>
      <point x="398" y="838" type="line"/>
      <point x="216" y="838" type="line"/>
    </contour>
    <contour>
      <point x="300" y="895" type="curve" smooth="yes"/>
      <point x="330" y="895"/>
      <point x="348" y="909"/>
      <point x="348" y="934" type="curve" smooth="yes"/>
      <point x="348" y="969"/>
      <point x="300" y="960"/>
      <point x="300" y="986" type="curve" smooth="yes"/>
      <point x="300" y="1004"/>
      <point x="320" y="1020"/>
      <point x="358" y="1032" type="curve"/>
      <point x="358" y="1069" type="line"/>
      <point x="280" y="1050"/>
      <point x="239" y="1012"/>
      <point x="239" y="958" type="curve" smooth="yes"/>
      <point x="239" y="921"/>
      <point x="263" y="895"/>
    </contour>
  </outline>
</glyph>
<glyph name="uni2E44" format="2">
  <advance width="600"/>
  <unicode hex="2E44"/>
  <outline>
    <contour>
      <point x="204" y="500" type="line"/>
      <point x="454" y="680" type="line"/>
      <point x="372" y="770" type="line"/>
      <point x="145" y="562" type="line"/>
    </contour>
    <contour>
      <point x="204" y="-63" type="line"/>
      <point x="454" y="117" type="line"/>
      <point x="372" y="207" type="line"/>
      <point x="145" y="-1" type="line"/>
    </contour>
  </outline>
</glyph>
<glyph name="uniA65D" format="2">
  <advance width="1200"/>
  <unicode hex="A65D"/>
  <outline>
    <contour>
      <point x="185" y="0" type="line"/>
      <point x="328" y="0" type="line"/>
      <point x="328" y="227" type="line"/>
      <point x="702" y="227" type="line"/>
      <point x="702" y="334" type="line"/>
      <point x="328" y="334" type="line"/>
      <point x="328" y="546" type="line"/>
      <point x="185" y="546" type="line"/>
    </contour>
    <component base="uniA659" xOffset="499"/>
  </outline>
</glyph>
<glyph name="uniA69E" format="2">
  <unicode hex="A69E"/>
  <outline>
    <contour>
      <point x="-43" y="124" type="line"/>
      <point x="44" y="124" type="line"/>
      <point x="44" y="273" type="line"/>
      <point x="169" y="283"/>
      <point x="233" y="351"/>
      <point x="233" y="447" type="curve" smooth="yes"/>
      <point x="233" y="544"/>
      <point x="165" y="611"/>
      <point x="44" y="621" type="curve"/>
      <point x="44" y="754" type="line"/>
      <point x="-43" y="754" type="line"/>
      <point x="-43" y="621" type="line"/>
      <point x="-172" y="613"/>
      <point x="-233" y="545"/>
      <point x="-233" y="447" type="curve" smooth="yes"/>
      <point x="-233" y="351"/>
      <point x="-164" y="283"/>
      <point x="-43" y="273" type="curve"/>
    </contour>
    <contour>
      <point x="-43" y="349" type="line"/>
      <point x="-100" y="356"/>
      <point x="-132" y="394"/>
      <point x="-132" y="447" type="curve" smooth="yes"/>
      <point x="-132" y="499"/>
      <point x="-98" y="538"/>
      <point x="-43" y="546" type="curve"/>
    </contour>
    <contour>
      <point x="44" y="349" type="curve"/>
      <point x="44" y="544" type="line"/>
      <point x="98" y="537"/>
      <point x="132" y="499"/>
      <point x="132" y="447" type="curve" smooth="yes"/>
      <point x="132" y="394"/>
      <point x="100" y="356"/>
    </contour>
  </outline>
</glyph>
<glyph name="uniA72B" format="2">
  <advance width="600"/>
  <unicode hex="A72B"/>
  <outline>
    <contour>
      <point x="328" y="-240" type="curve" smooth="yes"/>
      <point x="419" y="-240"/>
      <point x="488" y="-225"/>
      <point x="549" y="-199" type="curve"/>
      <point x="549" y="-73" type="line"/>
      <point x="485" y="-104"/>
      <point x="410" y="-120"/>
      <point x="349" y="-120" type="curve" smooth="yes"/>
      <point x="238" y="-120"/>
      <point x="196" y="-63"/>
      <point x="196" y="9" type="curve" smooth="yes"/>
      <point x="196" y="82"/>
      <point x="239" y="139"/>
      <point x="391" y="139" type="curve" smooth="yes"/>
      <point x="449" y="139" type="line"/>
      <point x="449" y="245" type="line"/>
      <point x="219" y="396" type="line"/>
      <point x="314" y="441" type="line"/>
      <point x="404" y="441"/>
      <point x="451" y="435"/>
      <point x="520" y="416" type="curve"/>
      <point x="555" y="527" type="line"/>
      <point x="485" y="552"/>
      <point x="406" y="557"/>
      <point x="292" y="557" type="curve"/>
      <point x="72" y="451" type="line"/>
      <point x="72" y="354" type="line"/>
      <point x="247" y="240" type="line"/>
      <point x="106" y="208"/>
      <point x="45" y="121"/>
      <point x="45" y="0" type="curve" smooth="yes"/>
      <point x="45" y="-142"/>
      <point x="140" y="-240"/>
    </contour>
  </outline>
</glyph>
<glyph name="uniA730" format="2">
  <advance width="600"/>
  <unicode hex="A730"/>
  <outline>
    <contour>
      <point x="139" y="0" type="line"/>
      <point x="260" y="0" type="line"/>
      <point x="260" y="233" type="line"/>
      <point x="447" y="233" type="line"/>
      <point x="447" y="331" type="line"/>
      <point x="260" y="331" type="line"/>
      <point x="260" y="448" type="line"/>
      <point x="461" y="448" type="line"/>
      <point x="461" y="546" type="line"/>
      <point x="139" y="546" type="line"/>
    </contour>
  </outline>
</glyph>
<glyph name="uniA731" format="2">
  <advance width="600"/>
  <unicode hex="A731"/>
  <anchor x="306" y="0" name="bottom"/>
  <anchor x="306" y="546" name="top"/>
  <outline>
    <contour>
      <point x="278" y="-10" type="curve" smooth="yes"/>
      <point x="408" y="-10"/>
      <point x="481" y="53"/>
      <point x="481" y="151" type="curve"/>
      <point x="481" y="242"/>
      <point x="426" y="277"/>
      <point x="347" y="316" type="curve" smooth="yes"/>
      <point x="288" y="345"/>
      <point x="243" y="360"/>
      <point x="243" y="405" type="curve" smooth="yes"/>
      <point x="243" y="437"/>
      <point x="266" y="460"/>
      <point x="315" y="460" type="curve" smooth="yes"/>
      <point x="351" y="460"/>
      <point x="390" y="448"/>
      <point x="441" y="427" type="curve"/>
      <point x="479" y="518" type="line"/>
      <point x="426" y="543"/>
      <point x="372" y="557"/>
      <point x="312" y="557" type="curve" smooth="yes"/>
      <point x="188" y="557"/>
      <point x="124" y="498"/>
      <point x="124" y="403" type="curve" smooth="yes"/>
      <point x="124" y="301"/>
      <point x="198" y="264"/>
      <point x="256" y="236" type="curve" smooth="yes"/>
      <point x="326" y="202"/>
      <point x="363" y="184"/>
      <point x="363" y="143" type="curve" smooth="yes"/>
      <point x="363" y="112"/>
      <point x="341" y="87"/>
      <point x="283" y="87" type="curve" smooth="yes"/>
      <point x="228" y="87"/>
      <point x="171" y="109"/>
      <point x="118" y="132" type="curve"/>
      <point x="118" y="23" type="line"/>
      <point x="163" y="2"/>
      <point x="221" y="-10"/>
    </contour>
  </outline>
</glyph>
<glyph name="uniA73C" format="2">
  <advance width="1200"/>
  <unicode hex="A73C"/>
  <outline>
    <contour>
      <point x="598" y="-240" type="curve" smooth="yes"/>
      <point x="720" y="-240"/>
      <point x="786" y="-174"/>
      <point x="827" y="-44" type="curve" smooth="yes"/>
      <point x="841" y="0" type="line"/>
      <point x="698" y="0" type="line"/>
      <point x="690" y="-29" type="line" smooth="yes"/>
      <point x="679" y="-71"/>
      <point x="648" y="-113"/>
      <point x="580" y="-113" type="curve" smooth="yes"/>
      <point x="556" y="-113"/>
      <point x="515" y="-108"/>
      <point x="483" y="-95" type="curve"/>
      <point x="483" y="-225" type="line"/>
      <point x="518" y="-235"/>
      <point x="565" y="-240"/>
    </contour>
    <component base="uniA738"/>
  </outline>
</glyph>
<glyph name="uniA741" format="2">
  <advance width="600"/>
  <unicode hex="A741"/>
  <anchor x="321" y="0" name="bottom"/>
  <anchor x="340" y="760" name="top"/>
  <anchor x="580" y="760" name="topright"/>
  <outline>
    <contour>
      <point x="0" y="584" type="line"/>
      <point x="341" y="584" type="line"/>
      <point x="341" y="681" type="line"/>
      <point x="0" y="681" type="line"/>
    </contour>
    <component base="k"/>
  </outline>
</glyph>
<glyph name="uniA743" format="2">
  <advance width="600"/>
  <unicode hex="A743"/>
  <anchor x="321" y="0" name="bottom"/>
  <anchor x="340" y="760" name="top"/>
  <anchor x="580" y="760" name="topright"/>
  <outline>
    <contour>
      <point x="305" y="27" type="line"/>
      <point x="549" y="246" type="line"/>
      <point x="487" y="314" type="line"/>
      <point x="244" y="94" type="line"/>
    </contour>
    <component base="k"/>
  </outline>
</glyph>
<glyph name="uniA744" format="2">
  <advance width="600"/>
  <unicode hex="A744"/>
  <anchor x="308" y="0" name="bottom"/>
  <anchor x="300" y="714" name="top"/>
  <anchor x="580" y="714" name="topright"/>
  <outline>
    <contour>
      <point x="274" y="29" type="line"/>
      <point x="574" y="268" type="line"/>
      <point x="510" y="343" type="line"/>
      <point x="211" y="104" type="line"/>
    </contour>
    <component base="uniA740"/>
  </outline>
</glyph>
<glyph name="uniA748" format="2">
  <advance width="600"/>
  <unicode hex="A748"/>
  <anchor x="370" y="0" name="bottom"/>
  <anchor x="340" y="357" name="center"/>
  <anchor x="201" y="714" name="top"/>
  <anchor x="494" y="714" name="topright"/>
  <outline>
    <contour>
      <point x="40" y="524" type="line"/>
      <point x="380" y="524" type="line"/>
      <point x="380" y="648" type="line"/>
      <point x="40" y="648" type="line"/>
    </contour>
    <component base="L" xOffset="40"/>
  </outline>
</glyph>
<glyph name="uniA749" format="2">
  <advance width="600"/>
  <unicode hex="A749"/>
  <anchor x="310" y="0" name="bottom"/>
  <anchor x="310" y="376" name="center"/>
  <anchor x="295" y="760" name="top"/>
  <anchor x="493" y="760" name="topright"/>
  <outline>
    <contour>
      <point x="96" y="478" type="line"/>
      <point x="499" y="478" type="line"/>
      <point x="499" y="575" type="line"/>
      <point x="96" y="575" type="line"/>
    </contour>
    <component base="l" xOffset="-5"/>
  </outline>
</glyph>
<glyph name="uniA75C" format="2">
  <advance width="600"/>
  <unicode hex="A75C"/>
  <outline>
    <contour>
      <point x="36" y="138" type="line"/>
      <point x="591" y="138" type="line"/>
      <point x="591" y="255" type="line"/>
      <point x="236" y="255" type="line"/>
      <point x="236" y="260" type="line"/>
      <point x="312" y="334" type="line" smooth="yes"/>
      <point x="398" y="417"/>
      <point x="441" y="475"/>
      <point x="441" y="563" type="curve" smooth="yes"/>
      <point x="441" y="670"/>
      <point x="371" y="725"/>
      <point x="254" y="725" type="curve" smooth="yes"/>
      <point x="144" y="725"/>
      <point x="91" y="686"/>
      <point x="38" y="641" type="curve"/>
      <point x="116" y="547" type="line"/>
      <point x="161" y="584"/>
      <point x="200" y="604"/>
      <point x="237" y="604" type="curve" smooth="yes"/>
      <point x="277" y="604"/>
      <point x="298" y="578"/>
      <point x="298" y="539" type="curve" smooth="yes"/>
      <point x="298" y="482"/>
      <point x="263" y="450"/>
      <point x="179" y="365" type="curve" smooth="yes"/>
      <point x="36" y="221" type="line"/>
    </contour>
    <contour>
      <point x="403" y="0" type="line"/>
      <point x="547" y="0" type="line"/>
      <point x="547" y="399" type="line"/>
      <point x="403" y="399" type="line"/>
    </contour>
  </outline>
</glyph>
<glyph name="uniA75E" format="2">
  <advance width="600"/>
  <unicode hex="A75E"/>
  <anchor x="300" y="0" name="bottom"/>
  <anchor x="300" y="714" name="top"/>
  <anchor x="580" y="714" name="topright"/>
  <outline>
    <contour>
      <point x="79" y="-75" type="line"/>
      <point x="176" y="-75" type="line"/>
      <point x="382" y="760" type="line"/>
      <point x="285" y="760" type="line"/>
    </contour>
    <component base="V"/>
  </outline>
</glyph>
<glyph name="uniA75F" format="2">
  <advance width="600"/>
  <unicode hex="A75F"/>
  <anchor x="300" y="0" name="bottom"/>
  <anchor x="300" y="546" name="top"/>
  <anchor x="580" y="546" name="topright"/>
  <outline>
    <contour>
      <point x="63" y="-93" type="line"/>
      <point x="132" y="-93" type="line"/>
      <point x="363" y="639" type="line"/>
      <point x="291" y="639" type="line"/>
    </contour>
    <component base="v"/>
  </outline>
</glyph>
<glyph name="uniA760" format="2">
  <advance width="600"/>
  <unicode hex="A760"/>
  <anchor x="300" y="0" name="bottom"/>
  <anchor x="300" y="714" name="top"/>
  <anchor x="580" y="714" name="topright"/>
  <outline>
    <contour>
      <point x="322" y="-240" type="curve" smooth="yes"/>
      <point x="458" y="-240"/>
      <point x="524" y="-156"/>
      <point x="540" y="0" type="curve"/>
      <point x="430" y="0" type="line"/>
      <point x="418" y="-100"/>
      <point x="381" y="-144"/>
      <point x="311" y="-144" type="curve" smooth="yes"/>
      <point x="282" y="-144"/>
      <point x="252" y="-139"/>
      <point x="226" y="-126" type="curve"/>
      <point x="226" y="-225" type="line"/>
      <point x="253" y="-235"/>
      <point x="284" y="-240"/>
    </contour>
    <component base="W"/>
  </outline>
</glyph>
<glyph name="uniA764" format="2">
  <advance width="600"/>
  <unicode hex="A764"/>
  <outline>
    <contour>
      <point x="80" y="0" type="line"/>
      <point x="221" y="0" type="line"/>
      <point x="221" y="99" type="line"/>
      <point x="293" y="99" type="line" smooth="yes"/>
      <point x="493" y="99"/>
      <point x="560" y="205"/>
      <point x="560" y="315" type="curve" smooth="yes"/>
      <point x="560" y="443"/>
      <point x="481" y="521"/>
      <point x="305" y="521" type="curve" smooth="yes"/>
      <point x="221" y="521" type="line"/>
      <point x="221" y="572" type="line"/>
      <point x="352" y="572" type="line"/>
      <point x="352" y="671" type="line"/>
      <point x="221" y="671" type="line"/>
      <point x="221" y="714" type="line"/>
      <point x="80" y="714" type="line"/>
      <point x="80" y="671" type="line"/>
      <point x="2" y="671" type="line"/>
      <point x="2" y="572" type="line"/>
      <point x="80" y="572" type="line"/>
    </contour>
    <contour>
      <point x="221" y="211" type="line"/>
      <point x="221" y="408" type="line"/>
      <point x="289" y="408" type="line" smooth="yes"/>
      <point x="377" y="408"/>
      <point x="416" y="381"/>
      <point x="416" y="315" type="curve" smooth="yes"/>
      <point x="416" y="243"/>
      <point x="371" y="211"/>
      <point x="277" y="211" type="curve" smooth="yes"/>
    </contour>
  </outline>
</glyph>
<glyph name="uniA768" format="2">
  <advance width="600"/>
  <unicode hex="A768"/>
  <outline>
    <contour>
      <point x="15" y="-240" type="line"/>
      <point x="290" y="-240" type="line"/>
      <point x="290" y="-164" type="line"/>
      <point x="223" y="-134" type="line"/>
      <point x="223" y="-31" type="line"/>
      <point x="595" y="714" type="line"/>
      <point x="443" y="714" type="line"/>
      <point x="250" y="301" type="line" smooth="yes"/>
      <point x="241" y="282"/>
      <point x="229" y="259"/>
      <point x="220" y="214" type="curve"/>
      <point x="214" y="215" type="line"/>
      <point x="218" y="260"/>
      <point x="218" y="279"/>
      <point x="218" y="305" type="curve" smooth="yes"/>
      <point x="218" y="608" type="line"/>
      <point x="285" y="638" type="line"/>
      <point x="285" y="714" type="line"/>
      <point x="15" y="714" type="line"/>
      <point x="15" y="638" type="line"/>
      <point x="87" y="608" type="line"/>
      <point x="87" y="-134" type="line"/>
      <point x="15" y="-164" type="line"/>
    </contour>
  </outline>
</glyph>
<glyph name="uniA772" format="2">
  <advance width="600"/>
  <unicode hex="A772"/>
  <anchor x="345" y="0" name="bottom"/>
  <anchor x="345" y="376" name="center"/>
  <anchor x="330" y="760" name="top"/>
  <anchor x="528" y="760" name="topright"/>
  <outline>
    <contour>
      <point x="20" y="-157" type="line"/>
      <point x="117" y="-157" type="line"/>
      <point x="231" y="269" type="line"/>
      <point x="135" y="269" type="line"/>
    </contour>
    <contour>
      <point x="20" y="0" type="line"/>
      <point x="327" y="0" type="line"/>
      <point x="327" y="114" type="line"/>
      <point x="20" y="114" type="line"/>
    </contour>
    <component base="l" xOffset="30"/>
  </outline>
</glyph>
<glyph name="uniA77C" format="2">
  <advance width="600"/>
  <unicode hex="A77C"/>
  <outline>
    <contour>
      <point x="135" y="-1" type="line"/>
      <point x="531" y="-1" type="line"/>
      <point x="531" y="115" type="line"/>
      <point x="135" y="115" type="line"/>
    </contour>
    <component base="uniA785"/>
  </outline>
</glyph>
<glyph name="uniA791" format="2">
  <advance width="600"/>
  <unicode hex="A791"/>
  <anchor x="304" y="0" name="bottom"/>
  <anchor x="304" y="546" name="top"/>
  <anchor x="580" y="546" name="topright"/>
  <outline>
    <contour>
      <point x="466" y="-196" type="line"/>
      <point x="600" y="-196" type="line"/>
      <point x="600" y="114" type="line"/>
      <point x="449" y="114" type="line"/>
      <point x="449" y="0" type="line"/>
      <point x="466" y="0" type="line"/>
    </contour>
    <component base="n"/>
  </outline>
</glyph>
<glyph name="uniA792" format="2">
  <advance width="600"/>
  <unicode hex="A792"/>
  <anchor x="336" y="0" name="bottom"/>
  <anchor x="354" y="714" name="top"/>
  <anchor x="580" y="714" name="topright"/>
  <outline>
    <contour>
      <point x="0" y="291" type="line"/>
      <point x="376" y="291" type="line"/>
      <point x="376" y="415" type="line"/>
      <point x="0" y="415" type="line"/>
    </contour>
    <component base="C"/>
  </outline>
</glyph>
<glyph name="uniA794" format="2">
  <advance width="600"/>
  <unicode hex="A794"/>
  <anchor x="330" y="0" name="bottom"/>
  <anchor x="325" y="546" name="top"/>
  <anchor x="580" y="546" name="topright"/>
  <outline>
    <contour>
      <point x="329" y="-245" type="curve" smooth="yes"/>
      <point x="454" y="-245"/>
      <point x="503" y="-160"/>
      <point x="503" y="-62" type="curve" smooth="yes"/>
      <point x="503" y="129" type="line"/>
      <point x="356" y="43" type="line"/>
      <point x="356" y="-34" type="line" smooth="yes"/>
      <point x="356" y="-107"/>
      <point x="329" y="-126"/>
      <point x="294" y="-126" type="curve" smooth="yes"/>
      <point x="274" y="-126"/>
      <point x="261" y="-123"/>
      <point x="238" y="-117" type="curve"/>
      <point x="238" y="-234" type="line"/>
      <point x="261" y="-242"/>
      <point x="300" y="-245"/>
    </contour>
    <component base="c"/>
  </outline>
</glyph>
<glyph name="uniA799" format="2">
  <advance width="600"/>
  <unicode hex="A799"/>
  <anchor x="300" y="0" name="bottom"/>
  <anchor x="398" y="760" name="top"/>
  <anchor x="600" y="765" name="topright"/>
  <outline>
    <contour>
      <point x="112" y="243" type="line"/>
      <point x="467" y="243" type="line"/>
      <point x="467" y="340" type="line"/>
      <point x="112" y="340" type="line"/>
    </contour>
    <component base="f"/>
  </outline>
</glyph>
<glyph name="uniA7A0" format="2">
  <advance width="600"/>
  <unicode hex="A7A0"/>
  <anchor x="332" y="0" name="bottom"/>
  <anchor x="327" y="714" name="top"/>
  <anchor x="580" y="714" name="topright"/>
  <outline>
    <contour>
      <point x="0" y="380" type="line"/>
      <point x="600" y="464" type="line"/>
      <point x="600" y="553" type="line"/>
      <point x="0" y="469" type="line"/>
    </contour>
    <component base="G"/>
  </outline>
</glyph>
<glyph name="uniA7A6" format="2">
  <advance width="600"/>
  <unicode hex="A7A6"/>
  <anchor x="325" y="0" name="bottom"/>
  <anchor x="300" y="714" name="top"/>
  <anchor x="580" y="714" name="topright"/>
  <outline>
    <contour>
      <point x="0" y="406" type="line"/>
      <point x="600" y="490" type="line"/>
      <point x="600" y="579" type="line"/>
      <point x="0" y="495" type="line"/>
    </contour>
    <component base="R"/>
  </outline>
</glyph>
<glyph name="uniA7AE" format="2">
  <advance width="600"/>
  <unicode hex="A7AE"/>
  <outline>
    <contour>
      <point x="75" y="0" type="line"/>
      <point x="524" y="0" type="line"/>
      <point x="524" y="66" type="line"/>
      <point x="357" y="96" type="line"/>
      <point x="357" y="450" type="line"/>
      <point x="524" y="480" type="line"/>
      <point x="524" y="546" type="line"/>
      <point x="75" y="546" type="line"/>
      <point x="75" y="480" type="line"/>
      <point x="242" y="450" type="line"/>
      <point x="242" y="96" type="line"/>
      <point x="75" y="66" type="line"/>
    </contour>
  </outline>
</glyph>
<glyph name="uniA7B4" format="2">
  <advance width="600"/>
  <unicode hex="A7B4"/>
  <anchor x="300" y="0" name="bottom"/>
  <anchor x="300" y="714" name="top"/>
  <anchor x="580" y="714" name="topright"/>
  <outline>
    <contour>
      <point x="80" y="-240" type="line"/>
      <point x="215" y="-240" type="line"/>
      <point x="215" y="16" type="line"/>
      <point x="80" y="16" type="line"/>
    </contour>
    <component base="B"/>
  </outline>
</glyph>
<glyph name="uniA7B8" format="2">
  <advance width="600"/>
  <unicode hex="A7B8"/>
  <anchor x="300" y="0" name="bottom"/>
  <anchor x="540" y="10" name="ogonek"/>
  <anchor x="300" y="714" name="top"/>
  <anchor x="580" y="714" name="topright"/>
  <outline>
    <contour>
      <point x="78" y="-48" type="line"/>
      <point x="601" y="697" type="line"/>
      <point x="525" y="752" type="line"/>
      <point x="1" y="9" type="line"/>
    </contour>
    <component base="U"/>
  </outline>
</glyph>
<glyph name="uniA7B9" format="2">
  <advance width="600"/>
  <unicode hex="A7B9"/>
  <anchor x="300" y="0" name="bottom"/>
  <anchor x="540" y="10" name="ogonek"/>
  <anchor x="300" y="546" name="top"/>
  <anchor x="580" y="546" name="topright"/>
  <outline>
    <contour>
      <point x="85" y="-49" type="line"/>
      <point x="597" y="506" type="line"/>
      <point x="529" y="571" type="line"/>
      <point x="16" y="14" type="line"/>
    </contour>
    <component base="u"/>
  </outline>
</glyph>
<glyph name="uniA7FB" format="2">
  <advance width="600"/>
  <unicode hex="A7FB"/>
  <outline>
    <contour>
      <point x="385" y="0" type="line"/>
      <point x="525" y="0" type="line"/>
      <point x="525" y="714" type="line"/>
      <point x="75" y="714" type="line"/>
      <point x="75" y="589" type="line"/>
      <point x="385" y="589" type="line"/>
      <point x="385" y="403" type="line"/>
      <point x="90" y="403" type="line"/>
      <point x="90" y="278" type="line"/>
      <point x="385" y="278" type="line"/>
    </contour>
  </outline>
</glyph>
<glyph name="uniAB41" format="2">
  <advance width="600"/>
  <unicode hex="AB41"/>
  <anchor x="304" y="546" name="bottom"/>
  <anchor x="304" y="0" name="top"/>
  <outline>
    <contour>
      <point x="330" y="-43" type="line"/>
      <point x="547" y="564" type="line"/>
      <point x="488" y="584" type="line"/>
      <point x="271" y="-23" type="line"/>
    </contour>
    <component base="oe" xScale="-1" yScale="-1" xOffset="604" yOffset="546"/>
  </outline>
</glyph>
<glyph name="uniAB42" format="2">
  <advance width="600"/>
  <unicode hex="AB42"/>
  <anchor x="304" y="546" name="bottom"/>
  <anchor x="304" y="0" name="top"/>
  <outline>
    <contour>
      <point x="301" y="218" type="line"/>
      <point x="529" y="218" type="line"/>
      <point x="529" y="307" type="line"/>
      <point x="301" y="307" type="line"/>
    </contour>
    <component base="oe" xScale="-1" yScale="-1" xOffset="604" yOffset="546"/>
  </outline>
</glyph>
<glyph name="uniAB4F" format="2">
  <advance width="600"/>
  <unicode hex="AB4F"/>
  <outline>
    <contour>
      <point x="10" y="225" type="line"/>
      <point x="590" y="225" type="line"/>
      <point x="590" y="324" type="line"/>
      <point x="10" y="324" type="line"/>
    </contour>
    <component base="uniAB4E"/>
  </outline>
</glyph>
<glyph name="uniAB60" format="2">
  <advance width="600"/>
  <unicode hex="AB60"/>
  <outline>
    <contour>
      <point x="40" y="0" type="line"/>
      <point x="159" y="0" type="line"/>
      <point x="159" y="546" type="line"/>
      <point x="40" y="546" type="line"/>
    </contour>
    <contour>
      <point x="214" y="0" type="line"/>
      <point x="380" y="0" type="line" smooth="yes"/>
      <point x="530" y="0"/>
      <point x="590" y="68"/>
      <point x="590" y="174" type="curve" smooth="yes"/>
      <point x="590" y="282"/>
      <point x="521" y="335"/>
      <point x="375" y="335" type="curve" smooth="yes"/>
      <point x="333" y="335" type="line"/>
      <point x="333" y="546" type="line"/>
      <point x="214" y="546" type="line"/>
    </contour>
    <contour>
      <point x="333" y="103" type="line"/>
      <point x="333" y="232" type="line"/>
      <point x="370" y="232" type="line" smooth="yes"/>
      <point x="437" y="232"/>
      <point x="471" y="214"/>
      <point x="471" y="172" type="curve" smooth="yes"/>
      <point x="471" y="122"/>
      <point x="430" y="103"/>
      <point x="372" y="103" type="curve" smooth="yes"/>
    </contour>
  </outline>
</glyph>
<glyph name="f_f_i" format="2">
  <advance width="1200"/>
  <unicode hex="FB03"/>
  <anchor x="986" y="0" name="bottom _3"/>
  <anchor x="213" y="0" name="bottom_1"/>
  <anchor x="602" y="0" name="bottom_2"/>
  <anchor x="420" y="0" name="caret_1"/>
  <anchor x="800" y="0" name="caret_2"/>
  <anchor x="213" y="776" name="top_1"/>
  <anchor x="601" y="776" name="top_2"/>
  <anchor x="986" y="776" name="top_3"/>
  <outline>
    <contour>
      <point x="152" y="0" type="line"/>
      <point x="297" y="0" type="line"/>
      <point x="297" y="426" type="line"/>
      <point x="532" y="426" type="line"/>
      <point x="532" y="0" type="line"/>
      <point x="677" y="0" type="line"/>
      <point x="677" y="426" type="line"/>
      <point x="912" y="426" type="line"/>
      <point x="912" y="0" type="line"/>
      <point x="1057" y="0" type="line"/>
      <point x="1057" y="546" type="line"/>
      <point x="677" y="546" type="line"/>
      <point x="677" y="566" type="line" smooth="yes"/>
      <point x="677" y="614"/>
      <point x="705" y="642"/>
      <point x="753" y="642" type="curve" smooth="yes"/>
      <point x="773" y="642"/>
      <point x="810" y="639"/>
      <point x="844" y="628" type="curve"/>
      <point x="882" y="742" type="line"/>
      <point x="833" y="757"/>
      <point x="776" y="765"/>
      <point x="736" y="765" type="curve" smooth="yes"/>
      <point x="601" y="765"/>
      <point x="532" y="708"/>
      <point x="532" y="581" type="curve" smooth="yes"/>
      <point x="532" y="546" type="line"/>
      <point x="297" y="546" type="line"/>
      <point x="297" y="566" type="line" smooth="yes"/>
      <point x="297" y="614"/>
      <point x="326" y="642"/>
      <point x="390" y="642" type="curve" smooth="yes"/>
      <point x="410" y="642"/>
      <point x="447" y="639"/>
      <point x="481" y="628" type="curve"/>
      <point x="519" y="742" type="line"/>
      <point x="470" y="757"/>
      <point x="413" y="765"/>
      <point x="361" y="765" type="curve" smooth="yes"/>
      <point x="221" y="765"/>
      <point x="152" y="708"/>
      <point x="152" y="581" type="curve" smooth="yes"/>
      <point x="152" y="546" type="line"/>
      <point x="67" y="530" type="line"/>
      <point x="67" y="426" type="line"/>
      <point x="152" y="426" type="line"/>
    </contour>
    <contour>
      <point x="983" y="608" type="curve" smooth="yes"/>
      <point x="1043" y="608"/>
      <point x="1073" y="638"/>
      <point x="1073" y="693" type="curve" smooth="yes"/>
      <point x="1073" y="747"/>
      <point x="1044" y="776"/>
      <point x="985" y="776" type="curve" smooth="yes"/>
      <point x="925" y="776"/>
      <point x="896" y="747"/>
      <point x="896" y="692" type="curve" smooth="yes"/>
      <point x="896" y="636"/>
      <point x="926" y="608"/>
    </contour>
  </outline>
</glyph>
<glyph name="longs_t" format="2">
  <advance width="600"/>
  <unicode hex="FB05"/>
  <anchor x="157" y="0" name="bottom"/>
  <anchor x="133" y="0" name="bottom_1"/>
  <anchor x="395" y="0" name="bottom_2"/>
  <anchor x="260" y="0" name="caret_1"/>
  <anchor x="403" y="273" name="center"/>
  <anchor x="261" y="765" name="top"/>
  <anchor x="133" y="765" name="top_1"/>
  <anchor x="395" y="765" name="top_2"/>
  <anchor x="600" y="682" name="topright"/>
  <outline>
    <contour>
      <point x="468" y="-7" type="curve" smooth="yes"/>
      <point x="504" y="-7"/>
      <point x="541" y="0"/>
      <point x="574" y="15" type="curve"/>
      <point x="574" y="129" type="line"/>
      <point x="547" y="118"/>
      <point x="524" y="114"/>
      <point x="508" y="114" type="curve" smooth="yes"/>
      <point x="483" y="114"/>
      <point x="466" y="124"/>
      <point x="466" y="180" type="curve" smooth="yes"/>
      <point x="466" y="429" type="line"/>
      <point x="569" y="429" type="line"/>
      <point x="569" y="549" type="line"/>
      <point x="466" y="549" type="line"/>
      <point x="466" y="685" type="line"/>
      <point x="427" y="727"/>
      <point x="364" y="765"/>
      <point x="264" y="765" type="curve" smooth="yes"/>
      <point x="135" y="765"/>
      <point x="55" y="701"/>
      <point x="55" y="545" type="curve" smooth="yes"/>
      <point x="55" y="0" type="line"/>
      <point x="198" y="0" type="line"/>
      <point x="198" y="539" type="line" smooth="yes"/>
      <point x="198" y="604"/>
      <point x="209" y="642"/>
      <point x="261" y="642" type="curve" smooth="yes"/>
      <point x="289" y="642"/>
      <point x="310" y="631"/>
      <point x="323" y="613" type="curve"/>
      <point x="323" y="549" type="line"/>
      <point x="258" y="519" type="line"/>
      <point x="258" y="429" type="line"/>
      <point x="323" y="429" type="line"/>
      <point x="323" y="165" type="line" smooth="yes"/>
      <point x="323" y="44"/>
      <point x="370" y="-7"/>
    </contour>
  </outline>
</glyph>
<glyph name="s_t" format="2">
  <advance width="1200"/>
  <unicode hex="FB06"/>
  <anchor x="305" y="0" name="bottom"/>
  <anchor x="283" y="0" name="bottom_1"/>
  <anchor x="853" y="0" name="bottom_2"/>
  <anchor x="630" y="0" name="caret_1"/>
  <anchor x="860" y="273" name="center"/>
  <anchor x="305" y="546" name="top"/>
  <anchor x="283" y="546" name="top_1"/>
  <anchor x="853" y="765" name="top_2"/>
  <anchor x="1179" y="682" name="topright"/>
  <outline>
    <contour>
      <point x="991" y="-10" type="curve" smooth="yes"/>
      <point x="1036" y="-10"/>
      <point x="1084" y="-4"/>
      <point x="1133" y="12" type="curve"/>
      <point x="1133" y="126" type="line"/>
      <point x="1080" y="116"/>
      <point x="1051" y="111"/>
      <point x="1019" y="111" type="curve" smooth="yes"/>
      <point x="966" y="111"/>
      <point x="923" y="125"/>
      <point x="923" y="203" type="curve" smooth="yes"/>
      <point x="923" y="426" type="line"/>
      <point x="1128" y="426" type="line"/>
      <point x="1128" y="546" type="line"/>
      <point x="923" y="546" type="line"/>
      <point x="923" y="676" type="line"/>
      <point x="867" y="726"/>
      <point x="758" y="765"/>
      <point x="618" y="765" type="curve" smooth="yes"/>
      <point x="428" y="765"/>
      <point x="338" y="689"/>
      <point x="338" y="607" type="curve" smooth="yes"/>
      <point x="338" y="568"/>
      <point x="358" y="536"/>
      <point x="380" y="513" type="curve"/>
      <point x="519" y="513" type="line"/>
      <point x="472" y="533"/>
      <point x="462" y="553"/>
      <point x="462" y="573" type="curve" smooth="yes"/>
      <point x="462" y="620"/>
      <point x="517" y="642"/>
      <point x="603" y="642" type="curve" smooth="yes"/>
      <point x="685" y="642"/>
      <point x="747" y="622"/>
      <point x="778" y="602" type="curve"/>
      <point x="778" y="546" type="line"/>
      <point x="653" y="516" type="line"/>
      <point x="653" y="426" type="line"/>
      <point x="778" y="426" type="line"/>
      <point x="778" y="188" type="line" smooth="yes"/>
      <point x="778" y="49"/>
      <point x="850" y="-10"/>
    </contour>
    <contour>
      <point x="272" y="-10" type="curve" smooth="yes"/>
      <point x="436" y="-10"/>
      <point x="520" y="39"/>
      <point x="520" y="151" type="curve" smooth="yes"/>
      <point x="520" y="260"/>
      <point x="441" y="295"/>
      <point x="352" y="327" type="curve" smooth="yes"/>
      <point x="276" y="354"/>
      <point x="232" y="365"/>
      <point x="232" y="401" type="curve" smooth="yes"/>
      <point x="232" y="428"/>
      <point x="258" y="437"/>
      <point x="302" y="437" type="curve" smooth="yes"/>
      <point x="359" y="437"/>
      <point x="412" y="425"/>
      <point x="474" y="402" type="curve"/>
      <point x="519" y="513" type="line"/>
      <point x="451" y="542"/>
      <point x="377" y="556"/>
      <point x="307" y="556" type="curve" smooth="yes"/>
      <point x="176" y="556"/>
      <point x="84" y="508"/>
      <point x="84" y="396" type="curve" smooth="yes"/>
      <point x="84" y="301"/>
      <point x="150" y="268"/>
      <point x="241" y="233" type="curve" smooth="yes"/>
      <point x="326" y="200"/>
      <point x="371" y="189"/>
      <point x="371" y="152" type="curve" smooth="yes"/>
      <point x="371" y="122"/>
      <point x="340" y="111"/>
      <point x="289" y="111" type="curve" smooth="yes"/>
      <point x="212" y="111"/>
      <point x="137" y="132"/>
      <point x="80" y="157" type="curve"/>
      <point x="80" y="22" type="line"/>
      <point x="144" y="-2"/>
      <point x="206" y="-10"/>
    </contour>
  </outline>
</glyph>
<glyph name="aogonek.loclNAV" format="2">
  <advance width="600"/>
  <anchor x="307" y="0" name="bottom"/>
  <anchor x="540" y="10" name="ogonek"/>
  <anchor x="308" y="546" name="top"/>
  <anchor x="580" y="546" name="topright"/>
  <outline>
    <contour>
      <point x="331" y="-237" type="curve" smooth="yes"/>
      <point x="361" y="-237"/>
      <point x="384" y="-232"/>
      <point x="401" y="-225" type="curve"/>
      <point x="401" y="-140" type="line"/>
      <point x="390" y="-144"/>
      <point x="374" y="-149"/>
      <point x="355" y="-149" type="curve" smooth="yes"/>
      <point x="330" y="-149"/>
      <point x="315" y="-133"/>
      <point x="315" y="-107" type="curve" smooth="yes"/>
      <point x="315" y="-53"/>
      <point x="340" y="-3"/>
      <point x="398" y="69" type="curve"/>
      <point x="331" y="85" type="line"/>
      <point x="258" y="26"/>
      <point x="213" y="-52"/>
      <point x="213" y="-129" type="curve" smooth="yes"/>
      <point x="213" y="-195"/>
      <point x="255" y="-237"/>
    </contour>
    <component base="a"/>
  </outline>
</glyph>
<glyph name="t.sc" format="2">
  <advance width="600"/>
  <anchor x="300" y="0" name="bottom"/>
  <anchor x="300" y="291" name="center"/>
  <anchor x="300" y="582" name="top"/>
  <anchor x="580" y="582" name="topright"/>
  <outline>
    <contour>
      <point x="231" y="0" type="line"/>
      <point x="367" y="0" type="line"/>
      <point x="367" y="472" type="line"/>
      <point x="526" y="472" type="line"/>
      <point x="526" y="582" type="line"/>
      <point x="73" y="582" type="line"/>
      <point x="73" y="472" type="line"/>
      <point x="231" y="472" type="line"/>
    </contour>
  </outline>
</glyph>
<glyph name="tbar.sc" format="2">
  <advance width="600"/>
  <anchor x="300" y="0" name="bottom"/>
  <anchor x="300" y="582" name="top"/>
  <anchor x="300" y="291" name="center"/>
  <anchor x="580" y="582" name="topright"/>
  <outline>
    <contour>
      <point x="134" y="199" type="line"/>
      <point x="463" y="199" type="line"/>
      <point x="463" y="299" type="line"/>
      <point x="134" y="299" type="line"/>
    </contour>
    <component base="t.sc"/>
  </outline>
</glyph>
<glyph name="uni02E5_uni02E7_uni02E8" format="2">
  <advance width="600"/>
  <outline>
    <contour>
      <point x="424" y="0" type="line"/>
      <point x="490" y="0" type="line"/>
      <point x="490" y="688" type="line"/>
      <point x="424" y="688" type="line"/>
      <point x="424" y="226" type="line"/>
      <point x="303" y="347" type="line"/>
      <point x="106" y="688" type="line"/>
      <point x="48" y="654" type="line"/>
      <point x="251" y="305" type="line"/>
      <point x="424" y="132" type="line"/>
    </contour>
  </outline>
</glyph>
<glyph name="uni02E9_uni02E6_uni02E8" format="2">
  <advance width="600"/>
  <outline>
    <contour>
      <point x="106" y="0" type="line"/>
      <point x="279" y="398" type="line"/>
      <point x="424" y="97" type="line"/>
      <point x="424" y="0" type="line"/>
      <point x="490" y="0" type="line"/>
      <point x="490" y="688" type="line"/>
      <point x="424" y="688" type="line"/>
      <point x="424" y="245" type="line"/>
      <point x="274" y="557" type="line"/>
      <point x="44" y="26" type="line"/>
    </contour>
  </outline>
</glyph>
